<svg width="1726" height="1826" viewBox="0 0 1726 1826" fill="none" xmlns="http://www.w3.org/2000/svg">
<path opacity="0.4" d="M1604.3 461.939C1681.44 512.976 1666.85 631.526 1657.03 723.44C1649.38 794.974 1610.4 857.199 1556.92 905.37C1512.08 945.75 1450.8 947.526 1392.19 961.968C1317.45 980.386 1236.65 1043.6 1173.3 999.9C1109.87 956.136 1139.57 858.246 1130.91 781.718C1122.22 704.888 1075.24 619.259 1123.38 558.716C1171.55 498.135 1266.71 530.725 1342.63 515.448C1433.36 497.19 1527.13 410.889 1604.3 461.939Z" fill="#D6EEFF"/>
<path opacity="0.3" d="M424.067 27.8768C472.36 54.9666 496.11 108.86 510.164 162.36C524.567 217.185 532.607 277.805 502.315 325.741C472.303 373.234 412.165 383.554 358.933 401.677C296.844 422.815 226.838 475.407 173.119 437.814C119.287 400.141 165.881 312.383 143.266 250.75C113.855 170.598 -16.4951 109.054 25.1254 34.4909C66.1757 -39.0506 184.021 28.0995 268.328 26.7017C322.289 25.8071 377.015 1.48293 424.067 27.8768Z" fill="#FABCEE"/>
<path opacity="0.25" d="M1385.95 1801.25C1464.66 1781.77 1551.26 1778.08 1604.14 1717.14C1674.96 1635.54 1759.99 1522.09 1711.98 1425.57C1663.81 1328.71 1511.89 1374.85 1412.19 1331.19C1310.94 1286.86 1237.67 1131.07 1135.44 1173.13C1032.81 1215.36 1070.16 1371.19 1051.31 1479.68C1039.06 1550.18 1017.52 1620.46 1046.3 1686.08C1074.25 1749.82 1133 1794.84 1199.38 1817.35C1260.78 1838.17 1322.99 1816.84 1385.95 1801.25Z" fill="#FF95B0"/>
<path opacity="0.25" d="M512.845 739.02C582.768 774.052 597.271 867.629 604.245 945.622C610.49 1015.45 576.753 1075.9 548.716 1140.14C509.566 1229.84 508.282 1372.7 411.591 1387.02C314.057 1401.46 281.582 1253.27 205.038 1191.03C141.123 1139.06 32.7708 1137.1 7.66999 1058.57C-18.3392 977.201 25.1039 883.054 88.2282 825.585C143.033 775.689 226.884 807.716 299.46 792.92C374.185 777.686 444.644 704.85 512.845 739.02Z" fill="#CDC0FF"/>
</svg>
