<?xml version="1.0" standalone="no"?>
<!DOCTYPE svg PUBLIC "-//W3C//DTD SVG 20010904//EN"
 "http://www.w3.org/TR/2001/REC-SVG-20010904/DTD/svg10.dtd">
<svg version="1.0" xmlns="http://www.w3.org/2000/svg"
 width="1080.000000pt" height="1080.000000pt" viewBox="0 0 1080.000000 1080.000000"
 preserveAspectRatio="xMidYMid meet">
<metadata>
Created by potrace 1.14, written by Peter Selinger 2001-2017
</metadata>
<g transform="translate(0.000000,1080.000000) scale(0.100000,-0.100000)"
fill="#000000" stroke="none">
<path d="M4919 10398 c-25 -10 -99 -81 -103 -100 -2 -7 -6 -21 -10 -30 -4 -9
-8 -22 -10 -30 -1 -7 -4 -17 -7 -23 -4 -5 -5 -46 -2 -90 5 -101 5 -105 13
-105 3 0 6 -10 7 -22 3 -35 27 -108 35 -108 4 0 8 -11 8 -24 0 -13 9 -41 19
-63 11 -21 25 -53 33 -70 7 -18 16 -33 20 -33 5 0 7 -6 6 -12 -2 -7 3 -12 11
-10 12 3 12 0 1 -12 -8 -11 -9 -16 -1 -16 6 0 11 -7 11 -15 0 -8 5 -15 10 -15
6 0 10 -5 10 -11 0 -6 13 -30 28 -53 15 -22 31 -49 35 -58 3 -10 11 -18 17
-18 6 0 8 -4 5 -10 -3 -5 -2 -10 3 -10 5 0 12 -9 15 -21 4 -13 10 -18 18 -13
8 4 10 3 5 -4 -4 -6 2 -20 14 -32 11 -11 21 -23 21 -27 3 -18 46 -72 52 -66 4
3 7 -4 7 -16 0 -12 7 -24 15 -27 8 -3 17 -14 20 -25 4 -11 10 -17 15 -14 10 6
8 -15 -3 -32 -4 -6 -1 -14 5 -16 10 -4 10 -6 1 -6 -7 -1 -10 -7 -7 -15 3 -8 0
-17 -5 -21 -6 -3 -9 -11 -6 -16 4 -5 1 -9 -5 -9 -7 0 -9 -9 -5 -22 4 -16 3
-19 -3 -10 -7 11 -12 6 -20 -17 -8 -23 -8 -34 2 -44 16 -15 27 -67 14 -67 -5
0 -6 -4 -3 -10 5 -9 -11 -45 -55 -117 -11 -18 -17 -33 -14 -33 3 0 -2 -7 -10
-16 -9 -8 -16 -23 -16 -33 0 -9 -5 -22 -10 -27 -6 -6 -11 -26 -13 -45 -2 -19
-5 -39 -9 -44 -8 -15 -10 -144 -2 -157 4 -6 9 -25 10 -42 4 -53 23 -115 54
-176 17 -33 30 -61 30 -64 0 -2 -11 -7 -25 -10 -59 -15 -71 -150 -21 -245 15
-30 33 -60 39 -66 7 -6 21 -24 32 -40 11 -15 30 -38 43 -51 12 -13 22 -28 22
-34 0 -6 7 -13 15 -16 8 -4 13 -10 10 -14 -3 -5 9 -20 27 -35 22 -19 38 -25
55 -20 18 4 26 0 35 -19 6 -14 16 -22 22 -19 6 4 5 -1 -3 -10 -7 -9 -9 -17 -4
-17 5 0 17 -20 27 -44 25 -60 79 -116 185 -190 27 -19 52 -32 55 -29 3 4 6 2
6 -3 0 -5 17 -18 37 -29 51 -27 82 -55 77 -69 -2 -6 -6 -38 -8 -71 -2 -33 -6
-67 -8 -76 -5 -22 -37 -70 -59 -90 -10 -9 -17 -19 -14 -23 3 -3 0 -2 -6 3 -6
5 -21 3 -37 -5 -15 -7 -83 -22 -151 -34 -150 -25 -181 -36 -254 -84 -88 -59
-133 -123 -171 -246 -44 -141 -58 -171 -90 -188 -17 -9 -33 -17 -36 -17 -21
-5 -98 -27 -110 -32 -8 -3 -26 -8 -40 -10 -14 -2 -27 -8 -28 -14 -2 -5 -7 -7
-11 -4 -5 2 -23 0 -42 -6 -34 -10 -54 -15 -86 -23 -10 -2 -31 -10 -48 -17 -16
-6 -37 -13 -46 -15 -9 -2 -38 -13 -65 -25 -27 -12 -52 -22 -56 -21 -5 1 -8 -3
-8 -8 0 -5 -3 -9 -7 -8 -12 3 -83 -35 -83 -44 0 -4 -5 -8 -10 -8 -13 0 -26
-11 -85 -66 -24 -23 -54 -50 -67 -60 -24 -20 -63 -93 -54 -102 3 -3 0 -12 -7
-20 -15 -19 -19 -284 -4 -363 12 -70 58 -209 69 -209 4 0 7 -3 6 -7 -2 -12 14
-45 33 -68 44 -51 56 -62 79 -78 21 -15 25 -26 26 -70 2 -80 13 -186 24 -226
5 -20 11 -47 13 -61 3 -14 22 -88 43 -165 20 -77 39 -155 42 -172 2 -18 7 -33
11 -33 4 0 7 -11 7 -24 0 -23 3 -36 44 -168 11 -37 20 -75 20 -86 0 -10 5 -23
12 -30 7 -7 9 -12 6 -12 -3 0 -2 -17 3 -37 5 -21 12 -60 16 -88 3 -27 8 -52
12 -55 5 -4 7 -168 2 -207 0 -7 -15 -12 -33 -11 -73 2 -305 -70 -429 -132 -75
-38 -302 -211 -365 -277 -26 -28 -48 -32 -195 -37 -64 -2 -122 -6 -128 -10 -6
-4 -11 -2 -11 4 0 6 -5 8 -10 5 -18 -11 -150 -19 -290 -17 -366 3 -414 2 -452
-19 -10 -5 -18 -7 -18 -5 0 3 -22 -6 -49 -19 -27 -14 -54 -25 -60 -25 -6 0
-11 -4 -11 -8 0 -9 -71 -47 -82 -44 -5 1 -8 -5 -8 -14 0 -8 -5 -12 -10 -9 -6
3 -10 1 -10 -5 0 -6 -4 -8 -10 -5 -5 3 -10 1 -10 -5 0 -6 -8 -14 -18 -18 -67
-28 -167 -134 -187 -200 -3 -12 -9 -20 -13 -18 -4 2 -8 -12 -8 -32 -2 -47 -12
-176 -15 -188 -1 -5 0 -16 3 -24 8 -20 28 -100 31 -121 2 -9 10 -28 20 -42 9
-15 17 -29 17 -32 0 -6 12 -23 65 -93 6 -8 31 -35 58 -61 34 -34 44 -50 37
-59 -7 -9 -7 -9 2 -2 7 6 18 10 26 10 11 0 12 -3 3 -14 -10 -12 -9 -13 7 -9
12 3 25 -3 33 -15 14 -19 19 -22 40 -22 6 0 9 -8 7 -18 -3 -11 0 -19 8 -19 7
0 11 4 8 9 -7 11 0 10 31 -4 14 -6 25 -15 25 -19 0 -4 11 -10 25 -13 14 -4 23
-11 20 -16 -3 -6 1 -7 9 -4 9 3 16 1 16 -6 0 -6 5 -8 10 -5 6 3 10 2 10 -4 0
-6 6 -8 14 -5 8 3 17 0 22 -7 5 -8 3 -10 -6 -4 -8 5 -11 4 -6 -3 4 -6 13 -9
21 -6 21 8 41 -6 24 -17 -10 -6 -10 -9 -2 -9 6 0 14 4 18 10 6 10 55 -8 55
-21 0 -5 7 -5 17 -2 12 5 14 3 8 -7 -6 -10 -4 -12 8 -7 9 3 33 -1 54 -10 21
-9 43 -18 48 -19 6 -2 40 -11 78 -20 37 -10 67 -21 67 -26 0 -5 5 -6 12 -2 8
5 9 1 4 -12 -6 -15 -5 -17 5 -7 18 18 56 16 63 -3 5 -13 9 -14 20 -5 11 9 15
9 19 -1 4 -9 6 -9 7 2 0 8 7 2 15 -15 10 -19 13 -22 9 -7 -3 12 -1 22 5 22 5
0 12 -8 14 -17 4 -16 5 -16 6 1 1 13 6 16 19 11 9 -4 39 -11 66 -16 27 -5 53
-14 58 -21 5 -9 8 -9 8 -2 0 8 11 9 34 4 19 -4 37 -5 40 -2 4 3 6 -3 7 -14 0
-11 3 -14 6 -6 4 10 8 10 21 0 12 -10 14 -10 8 -1 -5 9 -2 11 8 7 9 -3 14 -9
11 -13 -2 -4 2 -8 10 -8 8 0 11 5 8 10 -4 7 1 7 13 2 10 -4 27 -7 36 -7 14 1
15 -4 7 -26 -9 -25 -8 -26 6 -8 8 11 15 24 15 29 0 5 6 4 14 -2 8 -6 18 -11
22 -10 5 1 14 0 19 -1 6 -1 15 -3 20 -4 72 -13 134 -30 130 -36 -2 -3 2 -7 10
-7 8 0 11 5 8 10 -4 7 1 8 13 3 10 -4 28 -10 39 -12 11 -2 52 -11 90 -19 76
-17 123 -26 143 -27 6 -1 12 -5 12 -10 0 -5 9 -6 20 -3 14 4 22 1 26 -10 5
-11 9 -13 14 -5 3 6 14 8 23 4 9 -3 14 -11 10 -18 -4 -6 1 -5 10 3 15 12 17
11 17 -5 0 -15 2 -16 9 -5 6 9 15 11 27 6 24 -10 31 -12 72 -13 18 -1 31 -6
28 -10 -3 -5 9 -8 27 -7 38 2 68 -5 62 -14 -2 -4 2 -8 10 -8 8 0 12 4 9 9 -3
5 7 6 22 2 31 -8 66 -39 56 -50 -4 -4 -2 -4 5 0 7 4 10 13 6 21 -3 9 1 15 11
15 9 0 16 -6 16 -14 0 -8 4 -17 9 -20 5 -4 7 4 4 16 -3 13 -1 19 4 13 9 -11
18 -14 73 -19 21 -2 46 -11 55 -20 21 -20 26 -20 18 0 -5 13 -3 15 13 7 10 -6
25 -8 33 -5 8 2 11 0 7 -6 -9 -14 19 -23 33 -9 8 8 11 8 11 -1 0 -6 7 -9 17
-5 12 5 14 3 8 -8 -7 -11 -6 -12 6 -2 15 12 66 6 75 -9 4 -6 -3 -8 -17 -4 -13
3 -18 3 -11 0 6 -3 9 -10 6 -16 -4 -6 2 -5 15 1 11 7 21 16 21 21 0 5 7 7 15
4 8 -4 12 -11 8 -18 -4 -7 -1 -7 9 1 8 7 18 10 22 6 4 -4 24 -8 44 -10 20 -1
48 -5 62 -8 14 -4 44 -8 68 -10 52 -5 63 -11 56 -33 -4 -13 -2 -12 8 3 17 25
53 25 72 0 8 -11 18 -17 22 -12 4 4 2 7 -4 7 -7 0 -12 4 -12 8 0 4 12 7 28 6
38 -3 40 -4 17 -14 -16 -7 -17 -9 -3 -9 9 -1 20 4 23 9 8 13 65 9 65 -5 0 -5
5 -3 11 5 8 12 10 10 5 -10 -5 -24 -4 -24 9 -6 8 11 15 16 15 11 0 -5 5 -4 12
3 19 19 28 14 29 -15 2 -24 2 -25 6 -5 2 12 9 20 14 17 5 -4 9 -1 9 5 0 6 5 8
10 5 6 -4 7 -12 3 -18 -3 -7 3 -4 14 6 11 9 22 14 25 11 3 -3 21 -6 38 -6 30
-1 31 -2 15 -15 -11 -7 -14 -13 -7 -13 6 0 17 8 24 19 10 14 18 16 36 10 13
-5 21 -13 17 -19 -4 -6 1 -7 11 -3 11 4 13 8 6 11 -20 6 -13 17 13 18 14 1 25
-3 25 -9 0 -6 3 -7 7 -4 3 4 12 2 20 -5 10 -8 17 -8 24 -1 8 8 7 13 -2 18 -8
5 -10 4 -5 -3 4 -7 3 -12 -3 -12 -5 0 -13 5 -16 10 -10 16 24 23 42 9 9 -8 14
-9 10 -2 -6 10 34 30 76 37 7 1 22 7 33 14 12 6 24 8 28 5 3 -3 6 -1 6 5 0 10
38 28 53 24 4 -1 7 2 7 6 0 5 15 17 34 27 19 11 33 23 30 27 -5 7 10 12 29 9
4 0 6 5 5 11 -2 7 3 12 10 10 8 -1 11 2 8 7 -4 5 6 19 20 30 15 12 23 21 19
21 -5 0 2 9 15 20 13 11 19 20 14 20 -5 0 -1 5 9 11 9 5 17 17 17 24 0 8 5 15
11 15 5 0 7 -5 3 -12 -4 -7 -3 -8 4 -4 6 4 9 13 6 20 -3 7 1 20 8 27 8 8 20
29 27 46 7 18 17 30 22 27 5 -3 6 2 3 10 -3 8 1 27 10 44 13 24 22 59 25 96 1
5 9 2 18 -5 16 -13 16 -12 1 9 -12 17 -14 32 -8 53 5 16 6 29 3 29 -3 0 1 8 8
17 8 9 10 14 4 11 -6 -4 -11 25 -11 78 -1 54 -7 90 -15 101 -12 14 -12 16 0 8
11 -6 12 -5 5 6 -15 24 -33 82 -28 91 3 4 0 8 -6 8 -6 0 -9 4 -6 9 4 5 1 11
-6 13 -7 3 -9 12 -5 22 4 11 13 16 22 12 8 -3 15 -1 15 5 0 6 5 7 10 4 6 -3
14 4 19 17 6 13 10 17 11 8 0 -10 7 -7 21 10 11 14 18 18 14 10 -4 -8 3 -3 15
13 12 15 25 25 30 22 4 -3 15 7 24 20 10 14 22 23 28 19 6 -4 8 -3 5 3 -4 6 8
22 25 37 18 14 28 26 24 26 -4 0 8 15 27 34 20 19 33 37 30 40 -4 3 -1 6 6 6
7 0 10 4 6 9 -3 6 1 13 9 18 8 4 15 13 16 18 1 6 8 25 16 44 8 18 14 39 14 47
0 7 5 16 10 19 6 4 8 11 5 16 -4 5 -3 9 2 9 4 0 9 11 9 25 1 14 -2 22 -8 19
-6 -4 -4 4 4 17 9 16 13 52 12 109 -2 116 -6 170 -13 170 -3 0 -7 15 -7 34 -1
19 -5 43 -9 53 -4 10 -9 28 -11 41 -1 13 -8 29 -14 37 -6 7 -13 23 -15 36 -6
31 -89 154 -141 209 -23 25 -54 57 -68 73 -14 15 -29 27 -35 27 -5 0 -11 4
-13 9 -1 5 -27 25 -56 44 -29 19 -53 39 -54 43 0 34 -75 100 -105 92 -13 -3
-87 35 -100 52 -7 8 -13 11 -13 7 0 -5 -7 -1 -16 7 -8 9 -37 30 -62 48 -26 17
-54 38 -63 47 -9 9 -32 30 -51 48 -20 18 -43 48 -52 67 l-17 36 54 108 c57
112 124 225 139 230 4 2 8 9 8 15 1 7 14 28 30 47 17 19 30 40 30 47 0 7 4 13
9 13 4 0 20 17 34 37 14 21 36 49 50 63 13 14 41 48 61 75 21 28 61 75 90 105
28 30 61 68 74 84 12 16 22 26 22 22 0 -8 43 37 71 74 13 17 19 20 19 10 1 -8
3 -22 5 -30 17 -66 27 -109 31 -135 2 -16 6 -41 9 -55 14 -60 42 -201 49 -244
2 -13 8 -35 12 -48 4 -12 9 -32 10 -43 4 -26 8 -43 21 -85 7 -19 17 -54 23
-78 6 -23 15 -40 20 -37 6 3 7 -1 4 -10 -7 -18 4 -50 60 -179 14 -32 24 -62
21 -66 -3 -5 -1 -11 5 -15 6 -4 8 -11 5 -16 -4 -5 -2 -9 2 -9 5 0 9 -8 10 -17
0 -10 3 -34 6 -53 4 -19 9 -123 12 -230 6 -246 14 -341 26 -356 7 -8 6 -14 -1
-19 -6 -3 -7 -11 -4 -17 4 -6 9 -29 11 -52 2 -22 9 -58 15 -81 6 -22 12 -45
14 -52 1 -7 10 -43 19 -80 10 -37 18 -72 20 -78 1 -5 8 -23 15 -40 15 -33 16
-39 24 -75 3 -14 10 -26 15 -28 6 -2 7 -10 4 -19 -5 -12 -3 -14 7 -8 9 5 11 4
6 -4 -4 -6 2 -42 13 -79 25 -83 43 -151 48 -177 2 -11 19 -83 39 -160 20 -77
37 -151 40 -165 2 -14 6 -34 8 -45 7 -31 19 -136 20 -175 1 -19 6 -38 11 -42
6 -5 6 -8 -1 -8 -14 0 -14 -62 1 -72 7 -5 6 -8 -1 -8 -6 0 -11 -11 -11 -25 -1
-16 4 -22 11 -18 6 4 5 0 -2 -9 -15 -18 -14 -215 0 -224 5 -3 5 -11 -1 -17 -5
-7 -11 -16 -13 -22 -1 -5 -7 -9 -11 -7 -5 1 -6 -2 -2 -8 3 -6 11 -8 16 -4 6 3
10 -10 9 -33 -1 -48 8 -178 15 -220 3 -18 8 -49 11 -69 3 -22 1 -42 -8 -52
-12 -15 -11 -16 4 -4 15 12 18 11 24 -12 3 -15 4 -37 2 -51 -3 -13 -2 -22 3
-20 4 3 10 1 13 -4 4 -5 2 -12 -3 -15 -5 -4 -2 -20 7 -39 17 -34 21 -46 25
-89 1 -14 5 -24 10 -21 4 2 7 -3 7 -12 0 -9 3 -14 8 -12 4 3 8 -6 9 -19 4 -45
6 -54 15 -54 4 0 8 -5 8 -11 0 -5 -6 -7 -12 -3 -9 6 -9 3 0 -9 8 -9 10 -22 6
-28 -4 -8 -3 -9 4 -5 7 4 12 1 12 -8 0 -9 4 -16 9 -16 4 0 6 -12 3 -26 -3 -18
-1 -25 6 -20 7 4 10 -1 7 -14 -2 -11 -1 -20 3 -21 4 0 16 -2 27 -4 35 -7 79
63 83 132 2 17 7 21 23 18 12 -3 18 -1 15 3 -4 4 -13 7 -19 7 -7 0 -15 25 -19
59 -4 32 -12 64 -17 70 -6 7 -6 17 -1 26 13 20 13 43 0 35 -6 -3 -7 1 -3 10 5
13 7 14 14 3 7 -10 9 -10 10 2 0 9 4 7 11 -7 9 -20 12 -21 22 -8 10 14 18 12
60 -15 31 -20 46 -36 42 -45 -3 -10 0 -12 11 -8 13 5 15 2 10 -11 -4 -11 -3
-15 4 -10 7 4 9 -1 5 -17 -3 -13 -3 -18 0 -11 8 18 27 15 20 -4 -3 -8 -2 -12
3 -9 5 3 12 -4 16 -15 3 -11 10 -20 14 -20 16 0 30 -47 18 -59 -9 -9 -8 -11 6
-5 13 5 20 1 24 -15 3 -11 10 -21 15 -21 5 0 6 -5 3 -10 -3 -6 1 -13 9 -16 8
-3 21 -21 28 -39 6 -19 14 -32 17 -30 3 1 17 -12 31 -31 14 -18 33 -36 43 -39
9 -4 17 -11 17 -16 0 -5 9 -9 20 -9 11 0 20 -6 20 -14 0 -9 7 -13 20 -11 11 2
22 0 25 -5 3 -5 14 -7 25 -5 11 2 20 0 20 -6 0 -10 35 7 58 29 8 7 9 12 2 12
-6 0 -9 4 -6 9 3 5 -1 12 -10 15 -10 4 -14 14 -11 25 3 15 1 18 -11 14 -12 -5
-14 -1 -10 15 4 12 2 20 -2 17 -5 -3 -11 4 -15 15 -3 11 -10 20 -15 20 -4 0
-11 7 -14 16 -5 12 -2 15 11 10 10 -4 14 -4 10 0 -4 4 -2 12 3 19 7 8 5 12 -5
12 -8 0 -12 -4 -9 -9 3 -4 -2 -8 -10 -8 -9 0 -16 5 -16 10 0 20 -3 25 -22 38
-10 7 -16 17 -13 22 3 5 0 12 -6 16 -9 5 -6 11 7 22 18 14 18 14 -2 8 -16 -5
-23 0 -32 20 -7 14 -10 30 -6 35 3 5 0 8 -6 7 -7 -2 -16 7 -20 18 -8 20 -6 20
15 10 13 -6 26 -19 29 -28 2 -10 10 -18 18 -18 10 0 9 3 -2 10 -9 6 -10 10 -3
10 7 0 17 -8 22 -18 6 -9 11 -12 11 -7 0 6 3 6 8 0 4 -6 19 -18 34 -28 19 -11
26 -23 22 -35 -5 -13 -4 -14 4 -3 8 11 17 8 48 -13 21 -14 32 -26 25 -26 -8 0
-11 -3 -8 -6 4 -4 13 -1 22 6 13 11 15 9 15 -11 0 -19 2 -21 10 -9 8 12 10 12
10 1 0 -8 3 -11 6 -8 4 4 19 0 33 -7 14 -7 38 -19 53 -26 15 -7 24 -18 21 -24
-4 -6 1 -5 10 3 11 8 17 9 17 3 0 -6 6 -9 14 -6 8 3 24 0 36 -6 15 -8 20 -8
16 -1 -4 6 0 11 9 11 8 0 24 5 34 12 15 9 17 17 11 34 -5 12 -7 25 -4 28 2 3
1 4 -2 1 -4 -2 -13 3 -21 11 -9 8 -21 13 -28 10 -8 -3 -11 2 -8 15 4 14 0 19
-13 19 -18 1 -18 1 -1 11 9 5 17 15 17 20 0 6 -6 7 -12 3 -10 -5 -10 -4 -1 6
9 10 8 16 -3 27 -8 8 -12 19 -9 24 4 5 0 9 -7 9 -8 0 -14 9 -15 20 -1 11 2 18
8 15 5 -4 9 -1 9 4 0 6 5 10 12 9 27 -6 15 30 -24 73 -24 25 -65 79 -93 120
-53 77 -131 159 -153 159 -7 0 -10 5 -7 10 3 6 1 10 -5 10 -15 0 -76 60 -72
72 1 5 -2 7 -7 4 -13 -8 -63 42 -55 55 3 5 2 9 -3 8 -16 -4 -43 13 -43 27 0 8
-5 14 -10 14 -12 0 -86 101 -82 112 1 5 -3 8 -8 8 -10 0 -29 39 -34 68 -1 7
-8 18 -14 24 -7 7 -12 19 -12 28 0 9 -4 20 -9 26 -8 8 -47 116 -57 154 -2 8
-12 49 -24 90 -27 102 -51 221 -64 325 -4 28 -9 66 -11 85 -3 19 -8 76 -11
125 -3 50 -7 106 -9 125 -2 19 -6 69 -9 111 -12 147 -15 195 -22 319 -8 178
-8 174 -19 182 -6 5 -6 8 1 8 6 0 10 12 8 28 -4 24 -11 97 -19 192 -1 19 -6
62 -10 95 -4 33 -8 70 -8 83 -1 12 -4 22 -7 22 -4 0 -6 10 -5 22 1 11 -3 44
-7 72 -5 28 -11 64 -14 81 -2 16 -8 33 -13 38 -5 5 -7 16 -4 25 5 11 3 13 -7
7 -9 -6 -11 -4 -5 4 4 7 2 31 -3 54 -6 23 -14 55 -17 70 -3 17 -10 25 -17 21
-7 -5 -8 -3 -4 5 9 14 -14 141 -25 141 -4 0 -7 6 -6 13 1 40 -4 78 -11 73 -4
-2 -8 10 -9 27 -1 30 -7 75 -19 137 -3 14 -7 149 -11 301 -4 219 -3 278 7 284
9 6 11 4 6 -4 -13 -21 33 -61 89 -77 61 -17 147 -25 164 -15 7 5 3 18 -14 41
-29 39 -31 50 -10 50 22 0 65 30 65 45 0 7 -13 18 -29 23 -37 13 -109 86 -113
115 -3 23 7 137 15 174 3 12 18 66 32 120 58 213 72 321 53 423 -5 30 -11 67
-13 83 -2 15 -9 50 -15 78 -20 82 -8 217 30 332 36 114 30 89 70 287 17 85 32
189 33 230 1 79 -11 272 -18 293 -3 6 -6 28 -9 47 -6 56 -34 168 -66 260 -25
73 -171 389 -260 560 -72 140 -195 484 -215 600 -3 19 -8 42 -10 50 -2 8 -6
31 -9 50 -8 48 -15 87 -27 140 -6 25 -12 52 -14 60 -18 87 -73 185 -148 268
-22 23 -36 42 -32 42 4 0 3 6 -2 13 -5 6 -10 26 -12 42 -2 17 -7 33 -13 36 -5
3 -8 8 -7 10 6 9 -20 66 -40 86 -12 13 -22 26 -22 30 0 21 -119 130 -201 186
-23 15 -37 27 -32 27 5 0 -25 16 -66 34 -41 19 -77 30 -78 25 -2 -5 -8 -6 -13
-3 -19 11 -126 -36 -139 -62 -8 -13 -19 -24 -25 -24 -29 0 -147 -201 -158
-269 -2 -9 -9 -27 -16 -39 -7 -13 -10 -26 -8 -29 3 -2 -1 -16 -8 -30 -8 -15
-12 -30 -9 -35 3 -4 2 -8 -3 -9 -38 -4 -74 -12 -105 -24 -20 -8 -39 -11 -42
-6 -9 14 -99 5 -141 -14 -51 -23 -64 -25 -71 -14 -3 6 -12 5 -22 -3 -12 -10
-14 -10 -8 0 4 7 2 12 -8 12 -8 0 -17 -4 -21 -10 -3 -5 -12 -7 -20 -3 -8 3
-15 0 -15 -6 0 -6 -9 -11 -20 -11 -11 0 -20 -5 -20 -11 0 -5 -4 -8 -9 -4 -6 3
-14 -3 -20 -12 -8 -15 -10 -16 -15 -3 -12 36 -45 118 -60 153 -9 20 -13 37 -9
37 5 0 4 4 -2 8 -9 6 -53 102 -59 127 -1 6 -7 20 -14 31 -6 12 -8 24 -5 28 3
3 1 6 -5 6 -7 0 -12 7 -12 15 0 8 -4 23 -10 33 -21 37 -74 157 -72 165 1 4 -3
7 -10 7 -6 0 -8 3 -5 6 3 4 -5 26 -18 49 -14 23 -25 49 -25 58 0 10 -4 17 -9
17 -10 0 -34 38 -47 73 -3 9 -10 17 -15 17 -5 0 -9 4 -9 10 0 14 -75 90 -88
90 -7 0 -12 4 -12 9 0 10 -39 27 -52 23 -5 -1 -8 2 -8 7 0 11 -61 10 -91 -1z
m258 -2254 c-3 -3 -12 -4 -19 -1 -8 3 -5 6 6 6 11 1 17 -2 13 -5z m203 -464
c0 -5 -8 -10 -17 -10 -15 0 -16 2 -3 10 19 12 20 12 20 0z m-370 -1305 c0 -9
-82 -42 -120 -49 -28 -6 -31 -5 -17 4 10 6 29 14 43 16 14 3 40 11 57 19 40
17 37 16 37 10z m-203 -71 c-3 -3 -12 -4 -19 -1 -8 3 -5 6 6 6 11 1 17 -2 13
-5z m-40 -10 c-3 -3 -12 -4 -19 -1 -8 3 -5 6 6 6 11 1 17 -2 13 -5z m2047
-3338 c-3 -15 -8 -25 -11 -23 -2 3 -1 17 3 31 3 15 8 25 11 23 2 -3 1 -17 -3
-31z m-357 -918 c-3 -8 -6 -5 -6 6 -1 11 2 17 5 13 3 -3 4 -12 1 -19z"/>
<path d="M6630 2617 c0 -2 6 -10 14 -16 11 -9 16 -9 22 1 4 7 4 10 -1 6 -4 -4
-14 -3 -22 3 -7 6 -13 9 -13 6z"/>
<path d="M6559 2533 c-13 -16 -12 -17 4 -4 9 7 17 15 17 17 0 8 -8 3 -21 -13z"/>
<path d="M6546 2498 c3 -4 9 -8 15 -8 5 0 9 4 9 8 0 5 -7 9 -15 9 -8 0 -12 -4
-9 -9z"/>
<path d="M6655 2501 c-3 -5 -2 -12 3 -15 5 -3 9 1 9 9 0 17 -3 19 -12 6z"/>
<path d="M6513 2472 c-8 -14 -8 -19 1 -19 7 0 13 9 13 19 1 10 1 18 0 18 -1 0
-7 -8 -14 -18z"/>
<path d="M6479 2458 c-5 -18 -6 -38 -1 -34 7 8 12 36 6 36 -2 0 -4 -1 -5 -2z"/>
<path d="M2180 2440 c-9 -6 -10 -10 -3 -10 6 0 15 5 18 10 8 12 4 12 -15 0z"/>
<path d="M2213 2375 c0 -8 4 -12 9 -9 5 3 6 10 3 15 -9 13 -12 11 -12 -6z"/>
<path d="M2215 2339 c-3 -4 2 -6 10 -5 21 3 28 13 10 13 -9 0 -18 -4 -20 -8z"/>
<path d="M2256 2302 c-3 -5 1 -9 9 -9 8 0 12 4 9 9 -3 4 -7 8 -9 8 -2 0 -6 -4
-9 -8z"/>
<path d="M2293 2275 c0 -8 4 -12 9 -9 4 3 8 9 8 15 0 5 -4 9 -8 9 -5 0 -9 -7
-9 -15z"/>
<path d="M2344 2238 c-12 -14 -13 -18 -3 -10 9 6 18 10 21 7 2 -3 5 2 5 10 0
19 0 19 -23 -7z"/>
<path d="M2310 2200 c0 -5 5 -10 11 -10 5 0 7 5 4 10 -3 6 -8 10 -11 10 -2 0
-4 -4 -4 -10z"/>
<path d="M2434 2135 c4 -49 12 -53 12 -5 0 22 -3 40 -7 40 -4 0 -6 -16 -5 -35z"/>
<path d="M2335 2140 c3 -5 8 -10 11 -10 2 0 4 5 4 10 0 6 -5 10 -11 10 -5 0
-7 -4 -4 -10z"/>
<path d="M2467 2139 c7 -7 15 -10 18 -7 3 3 -2 9 -12 12 -14 6 -15 5 -6 -5z"/>
<path d="M2547 2119 c7 -9 10 -19 6 -22 -3 -4 -1 -7 5 -7 17 0 15 16 -5 31
-16 12 -17 12 -6 -2z"/>
<path d="M2493 2085 c0 -8 4 -15 9 -15 4 0 8 4 8 9 0 6 -4 12 -8 15 -5 3 -9
-1 -9 -9z"/>
<path d="M2520 2055 c-7 -8 -17 -12 -23 -8 -6 4 -7 1 -3 -6 6 -9 13 -8 27 5
10 9 19 19 19 21 0 7 -8 2 -20 -12z"/>
<path d="M2574 2039 c0 -13 3 -15 13 -7 7 6 13 12 13 13 0 2 -6 5 -13 8 -7 3
-13 -3 -13 -14z"/>
<path d="M2665 2039 c-4 -6 -4 -13 -1 -16 3 -4 6 -1 6 6 0 7 5 9 12 5 7 -4 8
-3 4 4 -9 15 -13 15 -21 1z"/>
<path d="M2628 2019 c6 -9 8 -20 4 -25 -4 -5 -3 -6 2 -2 5 4 14 3 21 -2 8 -7
12 -5 12 5 0 8 -3 13 -5 10 -3 -3 -15 3 -26 12 -15 14 -18 14 -8 2z"/>
<path d="M2693 1997 c-3 -5 -2 -11 1 -14 3 -4 6 -1 6 6 0 7 4 9 10 6 5 -3 18
-2 27 4 14 7 12 9 -11 8 -15 -1 -30 -6 -33 -10z"/>
<path d="M2470 1980 c0 -5 5 -10 11 -10 5 0 7 5 4 10 -3 6 -8 10 -11 10 -2 0
-4 -4 -4 -10z"/>
<path d="M2749 1970 c5 -8 7 -23 6 -33 -2 -9 0 -15 5 -12 5 3 7 13 5 23 -1 9
1 22 6 27 5 7 1 11 -11 11 -13 0 -16 -4 -11 -16z"/>
<path d="M2804 1979 c-3 -6 -2 -15 4 -21 6 -6 12 -6 17 3 6 8 4 10 -5 4 -10
-6 -12 -4 -7 8 7 19 2 23 -9 6z"/>
<path d="M2867 1973 c5 -12 3 -14 -7 -8 -9 5 -11 4 -6 -4 6 -9 11 -9 22 0 17
14 17 16 0 22 -11 4 -13 1 -9 -10z"/>
<path d="M2553 1953 c0 -9 4 -10 14 -2 7 6 13 12 13 14 0 1 -6 2 -13 2 -8 0
-14 -6 -14 -14z"/>
<path d="M2639 1953 c-12 -16 -12 -17 2 -6 9 7 20 9 24 5 5 -4 5 -1 1 6 -9 16
-11 15 -27 -5z"/>
<path d="M2786 1942 c-3 -5 1 -9 9 -9 8 0 12 4 9 9 -3 4 -7 8 -9 8 -2 0 -6 -4
-9 -8z"/>
<path d="M2956 1937 c3 -10 9 -15 12 -12 3 3 0 11 -7 18 -10 9 -11 8 -5 -6z"/>
<path d="M2714 1926 c1 -8 5 -18 8 -22 4 -3 5 1 4 10 -1 8 -5 18 -8 22 -4 3
-5 -1 -4 -10z"/>
<path d="M2635 1920 c-3 -5 -1 -10 4 -10 6 0 11 5 11 10 0 6 -2 10 -4 10 -3 0
-8 -4 -11 -10z"/>
<path d="M2670 1920 c0 -5 5 -10 11 -10 5 0 7 5 4 10 -3 6 -8 10 -11 10 -2 0
-4 -4 -4 -10z"/>
<path d="M2930 1920 c0 -5 5 -10 10 -10 6 0 10 5 10 10 0 6 -4 10 -10 10 -5 0
-10 -4 -10 -10z"/>
<path d="M2880 1895 c-7 -8 -16 -13 -20 -10 -5 3 -11 2 -14 -3 -2 -4 6 -8 19
-8 14 0 22 2 20 5 -3 2 0 10 6 18 6 7 9 13 6 13 -2 0 -10 -7 -17 -15z"/>
<path d="M2789 1883 c-13 -16 -12 -17 4 -4 9 7 17 15 17 17 0 8 -8 3 -21 -13z"/>
<path d="M3020 1890 c0 -5 -6 -7 -14 -4 -8 3 -16 1 -20 -4 -3 -5 5 -8 16 -7
19 1 41 25 24 25 -3 0 -6 -4 -6 -10z"/>
<path d="M3150 1885 c0 -8 4 -15 10 -15 5 0 7 7 4 15 -4 8 -8 15 -10 15 -2 0
-4 -7 -4 -15z"/>
<path d="M3075 1880 c3 -5 8 -10 11 -10 2 0 4 5 4 10 0 6 -5 10 -11 10 -5 0
-7 -4 -4 -10z"/>
<path d="M2949 1863 c-13 -16 -12 -17 4 -4 16 13 21 21 13 21 -2 0 -10 -8 -17
-17z"/>
<path d="M3034 1841 c2 -42 11 -46 12 -5 0 19 -2 34 -6 34 -4 0 -7 -13 -6 -29z"/>
<path d="M3107 1853 c3 -7 6 -13 8 -13 2 0 5 6 8 13 3 8 -1 14 -8 14 -7 0 -11
-6 -8 -14z"/>
<path d="M3204 1855 c-4 -8 -10 -13 -14 -10 -5 3 -12 0 -16 -7 -4 -7 -4 -10 1
-6 4 4 14 3 22 -4 8 -6 13 -7 12 -2 -4 22 2 35 13 28 7 -4 8 -3 4 4 -10 16
-15 15 -22 -3z"/>
<path d="M3295 1859 c-8 -12 0 -22 20 -25 8 -1 13 2 9 7 -3 5 -10 6 -16 3 -7
-5 -9 -1 -5 9 7 19 2 23 -8 6z"/>
<path d="M3090 1841 c0 -6 4 -13 10 -16 6 -3 7 1 4 9 -7 18 -14 21 -14 7z"/>
<path d="M3266 1840 c5 -8 9 -21 10 -28 2 -8 5 -17 8 -20 4 -3 5 4 3 16 -2 12
-9 28 -17 35 -10 10 -11 9 -4 -3z"/>
<path d="M2953 1825 c0 -8 4 -12 9 -9 5 3 6 10 3 15 -9 13 -12 11 -12 -6z"/>
<path d="M3393 1825 c0 -8 4 -15 9 -15 4 0 8 4 8 9 0 6 -4 12 -8 15 -5 3 -9
-1 -9 -9z"/>
<path d="M3440 1831 c0 -6 4 -13 10 -16 6 -3 7 1 4 9 -7 18 -14 21 -14 7z"/>
<path d="M2754 1822 c4 -3 14 -7 22 -8 9 -1 13 0 10 4 -4 3 -14 7 -22 8 -9 1
-13 0 -10 -4z"/>
<path d="M2986 1822 c-3 -5 1 -9 9 -9 8 0 15 4 15 9 0 4 -4 8 -9 8 -6 0 -12
-4 -15 -8z"/>
<path d="M3073 1814 c16 -20 52 -30 41 -12 -4 5 -9 7 -12 4 -3 -3 -15 2 -26
11 -21 18 -21 18 -3 -3z"/>
<path d="M3476 1815 c-9 -26 -7 -32 5 -12 6 10 9 21 6 23 -2 3 -7 -2 -11 -11z"/>
<path d="M2835 1800 c-3 -5 -1 -10 4 -10 6 0 11 5 11 10 0 6 -2 10 -4 10 -3 0
-8 -4 -11 -10z"/>
<path d="M3230 1800 c0 -5 5 -10 11 -10 5 0 7 5 4 10 -3 6 -8 10 -11 10 -2 0
-4 -4 -4 -10z"/>
<path d="M3516 1795 c-9 -26 -7 -32 5 -12 6 10 9 21 6 23 -2 3 -7 -2 -11 -11z"/>
<path d="M3309 1783 c-13 -16 -12 -17 4 -4 9 7 17 15 17 17 0 8 -8 3 -21 -13z"/>
<path d="M3387 1787 c-3 -7 3 -13 14 -13 13 0 15 3 7 13 -6 7 -12 13 -13 13
-2 0 -5 -6 -8 -13z"/>
<path d="M3440 1780 c-9 -6 -10 -10 -3 -10 6 0 15 5 18 10 8 12 4 12 -15 0z"/>
<path d="M3557 1773 c3 -7 6 -13 8 -13 2 0 5 6 8 13 3 8 -1 14 -8 14 -7 0 -11
-6 -8 -14z"/>
<path d="M3684 1776 c-3 -8 -12 -12 -20 -9 -8 3 -14 1 -14 -4 0 -5 11 -9 24
-9 17 0 22 4 18 15 -4 10 -1 12 8 6 9 -5 11 -4 6 3 -10 16 -15 15 -22 -2z"/>
<path d="M3736 1777 c3 -10 9 -15 12 -12 3 3 0 11 -7 18 -10 9 -11 8 -5 -6z"/>
<path d="M6416 1778 c3 -4 11 -5 19 -1 21 7 19 12 -4 10 -11 0 -18 -5 -15 -9z"/>
<path d="M3324 1758 l-19 -23 23 19 c12 11 22 21 22 23 0 8 -8 2 -26 -19z"/>
<path d="M3576 1753 c-6 -14 -5 -15 5 -6 7 7 10 15 7 18 -3 3 -9 -2 -12 -12z"/>
<path d="M3720 1760 c0 -5 1 -12 3 -14 1 -2 -7 -14 -18 -27 l-20 -24 20 17
c18 15 32 58 19 58 -2 0 -4 -4 -4 -10z"/>
<path d="M3350 1738 c0 -4 4 -8 9 -8 6 0 12 4 15 8 3 5 -1 9 -9 9 -8 0 -15 -4
-15 -9z"/>
<path d="M3600 1735 c-7 -8 -17 -12 -24 -8 -6 3 -7 2 -3 -2 4 -5 15 -10 23
-11 9 -1 13 0 10 3 -3 4 -1 12 5 20 6 7 9 13 6 13 -2 0 -10 -7 -17 -15z"/>
<path d="M3895 1740 c5 -9 1 -11 -16 -6 -13 3 -18 3 -11 0 6 -3 10 -9 8 -13
-3 -4 1 -8 9 -8 18 0 28 24 13 33 -7 5 -8 2 -3 -6z"/>
<path d="M2836 1727 c3 -10 9 -15 12 -12 3 3 0 11 -7 18 -10 9 -11 8 -5 -6z"/>
<path d="M3781 1733 c-1 -17 16 -25 25 -12 4 7 3 9 -4 5 -5 -3 -13 0 -15 6 -4
9 -6 10 -6 1z"/>
<path d="M3830 1736 c0 -2 8 -10 18 -17 15 -13 16 -12 3 4 -13 16 -21 21 -21
13z"/>
<path d="M3210 1720 c0 -5 5 -10 11 -10 5 0 7 5 4 10 -3 6 -8 10 -11 10 -2 0
-4 -4 -4 -10z"/>
<path d="M3627 1719 c7 -7 15 -10 18 -7 3 3 -2 9 -12 12 -14 6 -15 5 -6 -5z"/>
<path d="M3759 1728 c-7 -23 -4 -35 7 -35 9 0 11 4 4 12 -5 7 -7 15 -3 18 3 4
3 7 0 7 -4 0 -7 -1 -8 -2z"/>
<path d="M3953 1720 c-31 -12 -29 -22 1 -10 13 5 27 6 30 3 3 -4 6 -1 6 5 0
14 -7 14 -37 2z"/>
<path d="M4036 1707 c3 -10 9 -15 12 -12 3 3 0 11 -7 18 -10 9 -11 8 -5 -6z"/>
<path d="M3839 1698 c-5 -18 -6 -38 -1 -34 7 8 12 36 6 36 -2 0 -4 -1 -5 -2z"/>
<path d="M3995 1690 c3 -5 8 -10 11 -10 2 0 4 5 4 10 0 6 -5 10 -11 10 -5 0
-7 -4 -4 -10z"/>
<path d="M3449 1677 c6 -8 7 -18 3 -22 -4 -5 -1 -5 6 -1 10 6 10 11 1 22 -6 8
-14 14 -16 14 -3 0 0 -6 6 -13z"/>
<path d="M3910 1681 c0 -5 8 -15 18 -22 15 -12 16 -12 5 2 -7 9 -10 19 -6 22
3 4 1 7 -5 7 -7 0 -12 -4 -12 -9z"/>
<path d="M4037 1667 c-3 -8 1 -14 8 -14 7 0 11 6 8 14 -3 7 -6 13 -8 13 -2 0
-5 -6 -8 -13z"/>
<path d="M3960 1660 c-9 -6 -10 -10 -3 -10 6 0 15 5 18 10 8 12 4 12 -15 0z"/>
<path d="M6355 1660 c-3 -5 -1 -10 4 -10 6 0 11 5 11 10 0 6 -2 10 -4 10 -3 0
-8 -4 -11 -10z"/>
<path d="M3896 1647 c3 -10 9 -15 12 -12 3 3 0 11 -7 18 -10 9 -11 8 -5 -6z"/>
<path d="M3655 1640 c-3 -5 -1 -10 4 -10 6 0 11 5 11 10 0 6 -2 10 -4 10 -3 0
-8 -4 -11 -10z"/>
<path d="M4144 1630 c0 -13 4 -16 10 -10 7 7 7 13 0 20 -6 6 -10 3 -10 -10z"/>
<path d="M4270 1640 c0 -5 5 -10 11 -10 5 0 7 5 4 10 -3 6 -8 10 -11 10 -2 0
-4 -4 -4 -10z"/>
<path d="M4307 1644 c-4 -4 -7 -12 -7 -18 0 -6 5 -4 10 4 9 13 11 13 21 0 9
-12 10 -12 7 -1 -5 17 -21 25 -31 15z"/>
<path d="M4079 1638 c-5 -18 -6 -38 -1 -34 7 8 12 36 6 36 -2 0 -4 -1 -5 -2z"/>
<path d="M4111 1627 c-8 -10 -7 -14 2 -14 8 0 14 6 14 14 0 7 -1 13 -2 13 -2
0 -8 -6 -14 -13z"/>
<path d="M4226 1623 c-6 -14 -5 -15 5 -6 7 7 10 15 7 18 -3 3 -9 -2 -12 -12z"/>
<path d="M4390 1630 c-11 -7 -11 -10 -2 -10 7 0 10 -4 7 -10 -4 -6 1 -7 11 -3
11 4 13 8 6 11 -7 2 -10 8 -6 13 7 11 3 11 -16 -1z"/>
<path d="M3920 1615 c-7 -9 -11 -17 -9 -20 3 -2 10 5 17 15 14 24 10 26 -8 5z"/>
<path d="M4030 1616 c7 -7 13 -7 20 0 6 6 3 10 -10 10 -13 0 -16 -4 -10 -10z"/>
<path d="M6330 1620 c0 -5 5 -10 11 -10 5 0 7 5 4 10 -3 6 -8 10 -11 10 -2 0
-4 -4 -4 -10z"/>
<path d="M4435 1610 c-3 -6 1 -7 9 -4 18 7 21 14 7 14 -6 0 -13 -4 -16 -10z"/>
<path d="M4478 1613 c7 -3 16 -2 19 1 4 3 -2 6 -13 5 -11 0 -14 -3 -6 -6z"/>
<path d="M4170 1599 c0 -5 5 -7 10 -4 6 3 10 8 10 11 0 2 -4 4 -10 4 -5 0 -10
-5 -10 -11z"/>
<path d="M4301 1594 c0 -11 3 -14 6 -6 3 7 2 16 -1 19 -3 4 -6 -2 -5 -13z"/>
<path d="M4545 1600 c-3 -6 1 -7 9 -4 18 7 21 14 7 14 -6 0 -13 -4 -16 -10z"/>
<path d="M4239 1595 c-1 -3 -2 -8 -3 -12 -1 -5 -5 -15 -10 -23 -7 -12 -6 -13
4 -3 13 12 23 43 14 43 -2 0 -5 -2 -5 -5z"/>
<path d="M4269 1583 c-13 -16 -12 -17 4 -4 9 7 17 15 17 17 0 8 -8 3 -21 -13z"/>
<path d="M4510 1590 c-9 -6 -10 -10 -3 -10 6 0 15 5 18 10 8 12 4 12 -15 0z"/>
<path d="M4030 1586 c0 -2 7 -7 16 -10 8 -3 12 -2 9 4 -6 10 -25 14 -25 6z"/>
<path d="M4193 1573 c0 -9 4 -10 14 -2 7 6 13 12 13 14 0 1 -6 2 -13 2 -8 0
-14 -6 -14 -14z"/>
<path d="M4551 1572 c-9 -16 -6 -19 14 -18 13 1 27 5 31 9 4 3 -3 4 -16 2 -16
-3 -20 0 -16 10 8 21 -1 18 -13 -3z"/>
<path d="M6225 1579 c-3 -4 2 -6 10 -5 21 3 28 13 10 13 -9 0 -18 -4 -20 -8z"/>
<path d="M4115 1571 c-3 -5 -2 -12 3 -15 5 -3 9 1 9 9 0 17 -3 19 -12 6z"/>
<path d="M4333 1567 c0 -7 9 -14 19 -14 10 -1 18 3 18 9 0 6 -3 8 -7 5 -3 -4
-11 -2 -18 3 -8 7 -12 6 -12 -3z"/>
<path d="M4275 1559 c-3 -4 2 -6 10 -5 21 3 28 13 10 13 -9 0 -18 -4 -20 -8z"/>
<path d="M4624 1559 c-5 -8 -3 -9 6 -4 7 4 16 2 22 -6 8 -12 9 -12 6 0 -6 20
-24 25 -34 10z"/>
<path d="M4744 1558 c10 -6 22 -6 26 -2 5 5 -3 10 -18 11 -22 1 -24 0 -8 -9z"/>
<path d="M3955 1540 c3 -5 8 -10 11 -10 2 0 4 5 4 10 0 6 -5 10 -11 10 -5 0
-7 -4 -4 -10z"/>
<path d="M4510 1541 c0 -6 4 -12 8 -15 5 -3 9 1 9 9 0 8 -4 15 -9 15 -4 0 -8
-4 -8 -9z"/>
<path d="M4599 1548 c-7 -24 -4 -40 9 -50 15 -11 15 -11 6 2 -6 8 -10 23 -9
33 3 13 -2 26 -6 15z"/>
<path d="M4735 1540 c6 -9 4 -12 -7 -8 -8 4 -15 1 -15 -7 0 -8 7 -11 15 -7 11
4 13 1 7 -9 -5 -8 -4 -11 0 -6 13 12 15 36 3 44 -7 4 -8 1 -3 -7z"/>
<path d="M4777 1542 c-3 -4 3 -18 14 -31 10 -13 19 -19 19 -13 0 6 -7 17 -15
25 -8 8 -11 17 -8 21 4 3 4 6 0 6 -3 0 -8 -3 -10 -8z"/>
<path d="M4830 1543 c0 -5 5 -15 10 -23 7 -12 9 -10 7 8 -1 19 -17 33 -17 15z"/>
<path d="M6296 1538 c3 -4 11 -5 19 -1 21 7 19 12 -4 10 -11 0 -18 -5 -15 -9z"/>
<path d="M4214 1515 c0 -13 3 -22 7 -19 8 4 6 30 -2 38 -3 3 -5 -5 -5 -19z"/>
<path d="M4295 1531 c-3 -5 -2 -12 3 -15 5 -3 9 1 9 9 0 17 -3 19 -12 6z"/>
<path d="M4330 1537 c0 -2 6 -10 14 -16 11 -9 16 -9 22 1 4 7 4 10 -1 6 -4 -4
-14 -3 -22 3 -7 6 -13 9 -13 6z"/>
<path d="M4457 1529 c7 -7 15 -10 18 -7 3 3 -2 9 -12 12 -14 6 -15 5 -6 -5z"/>
<path d="M4620 1531 c0 -6 4 -13 10 -16 6 -3 7 1 4 9 -7 18 -14 21 -14 7z"/>
<path d="M4945 1520 c-16 -17 -16 -20 -3 -15 9 4 19 13 22 21 7 19 2 18 -19
-6z"/>
<path d="M6106 1523 c-6 -14 -5 -15 5 -6 7 7 10 15 7 18 -3 3 -9 -2 -12 -12z"/>
<path d="M4250 1499 c0 -5 5 -7 10 -4 6 3 10 8 10 11 0 2 -4 4 -10 4 -5 0 -10
-5 -10 -11z"/>
<path d="M4640 1500 c-9 -6 -10 -10 -3 -10 6 0 15 5 18 10 8 12 4 12 -15 0z"/>
<path d="M5070 1500 c0 -5 5 -10 11 -10 5 0 7 5 4 10 -3 6 -8 10 -11 10 -2 0
-4 -4 -4 -10z"/>
<path d="M5110 1500 c-13 -8 -12 -10 3 -10 9 0 17 5 17 10 0 12 -1 12 -20 0z"/>
<path d="M6050 1501 c0 -6 4 -13 10 -16 6 -3 7 1 4 9 -7 18 -14 21 -14 7z"/>
<path d="M6070 1506 c0 -2 7 -7 16 -10 8 -3 12 -2 9 4 -6 10 -25 14 -25 6z"/>
<path d="M4570 1496 c0 -2 8 -10 18 -17 15 -13 16 -12 3 4 -13 16 -21 21 -21
13z"/>
<path d="M4775 1490 c-4 -6 -10 -8 -14 -6 -4 3 -8 -1 -8 -9 0 -10 4 -12 12 -5
7 5 14 8 17 5 2 -3 5 2 5 10 0 18 -3 19 -12 5z"/>
<path d="M4913 1485 c0 -8 4 -12 9 -9 5 3 6 10 3 15 -9 13 -12 11 -12 -6z"/>
<path d="M5050 1489 c0 -5 -4 -8 -9 -4 -5 3 -12 1 -15 -4 -4 -5 2 -8 11 -7 15
3 33 26 19 26 -3 0 -6 -5 -6 -11z"/>
<path d="M5162 1480 c-7 -11 -8 -20 -3 -20 9 0 24 30 18 36 -1 2 -8 -6 -15
-16z"/>
<path d="M6113 1486 c0 -15 22 -15 34 0 4 5 4 6 -1 2 -5 -4 -14 -3 -21 2 -8 7
-12 5 -12 -4z"/>
<path d="M4510 1486 c0 -2 7 -7 16 -10 8 -3 12 -2 9 4 -6 10 -25 14 -25 6z"/>
<path d="M4673 1471 c0 -11 5 -18 9 -15 4 3 5 11 1 19 -7 21 -12 19 -10 -4z"/>
<path d="M4884 1475 c-4 -8 -11 -12 -18 -8 -6 3 -7 2 -3 -2 14 -16 33 -13 33
6 0 23 -5 24 -12 4z"/>
<path d="M4966 1482 c-3 -5 1 -9 9 -9 8 0 15 4 15 9 0 4 -4 8 -9 8 -6 0 -12
-4 -15 -8z"/>
<path d="M6021 1474 c0 -11 3 -14 6 -6 3 7 2 16 -1 19 -3 4 -6 -2 -5 -13z"/>
<path d="M6256 1482 c-3 -5 1 -9 9 -9 8 0 12 4 9 9 -3 4 -7 8 -9 8 -2 0 -6 -4
-9 -8z"/>
<path d="M4370 1460 c0 -5 5 -10 11 -10 5 0 7 5 4 10 -3 6 -8 10 -11 10 -2 0
-4 -4 -4 -10z"/>
<path d="M4600 1460 c-9 -6 -10 -10 -3 -10 6 0 15 5 18 10 8 12 4 12 -15 0z"/>
<path d="M4705 1459 c-3 -4 2 -6 10 -5 21 3 28 13 10 13 -9 0 -18 -4 -20 -8z"/>
<path d="M4999 1468 c-8 -26 -4 -34 16 -34 15 0 21 5 18 14 -5 11 -7 11 -14 0
-8 -12 -13 -4 -10 15 1 6 -8 11 -10 5z"/>
<path d="M5335 1460 c-3 -6 1 -7 9 -4 18 7 21 14 7 14 -6 0 -13 -4 -16 -10z"/>
<path d="M5959 1463 c0 -5 -2 -16 -4 -26 -2 -11 -1 -16 3 -13 8 8 14 46 7 46
-3 0 -5 -3 -6 -7z"/>
<path d="M6214 1456 c1 -8 5 -18 8 -22 4 -3 5 1 4 10 -1 8 -5 18 -8 22 -4 3
-5 -1 -4 -10z"/>
<path d="M4775 1451 c-3 -5 -2 -12 3 -15 5 -3 9 1 9 9 0 17 -3 19 -12 6z"/>
<path d="M5196 1451 c-3 -5 -21 -8 -41 -6 -19 1 -32 -1 -30 -5 3 -4 21 -7 40
-5 24 1 35 -2 31 -10 -2 -6 2 -12 9 -12 10 0 11 5 5 17 -5 10 -6 20 -3 24 3 3
4 6 0 6 -3 0 -8 -4 -11 -9z"/>
<path d="M5079 1443 c-5 -36 -5 -62 -1 -58 7 7 12 65 6 65 -2 0 -4 -3 -5 -7z"/>
<path d="M5370 1440 c0 -5 5 -10 10 -10 6 0 10 5 10 10 0 6 -4 10 -10 10 -5 0
-10 -4 -10 -10z"/>
<path d="M5473 1433 c0 -9 4 -10 12 -3 7 5 15 7 18 3 4 -3 7 -1 7 5 0 6 -8 10
-18 9 -10 0 -19 -7 -19 -14z"/>
<path d="M5680 1440 c-8 -5 -12 -11 -10 -14 3 -2 14 2 24 10 22 15 10 19 -14
4z"/>
<path d="M5775 1439 c-6 -8 -4 -10 5 -4 10 6 12 4 6 -11 -6 -15 -5 -17 5 -6 9
9 10 15 2 23 -8 8 -13 7 -18 -2z"/>
<path d="M6016 1433 c-6 -14 -5 -15 5 -6 7 7 10 15 7 18 -3 3 -9 -2 -12 -12z"/>
<path d="M4486 1418 c3 -5 10 -6 15 -3 13 9 11 12 -6 12 -8 0 -12 -4 -9 -9z"/>
<path d="M4535 1420 c3 -5 8 -10 11 -10 2 0 4 5 4 10 0 6 -5 10 -11 10 -5 0
-7 -4 -4 -10z"/>
<path d="M4919 1413 c-13 -16 -12 -17 4 -4 16 13 21 21 13 21 -2 0 -10 -8 -17
-17z"/>
<path d="M4953 1413 c0 -9 4 -10 14 -2 7 6 13 12 13 14 0 1 -6 2 -13 2 -8 0
-14 -6 -14 -14z"/>
<path d="M5438 1423 c7 -3 16 -2 19 1 4 3 -2 6 -13 5 -11 0 -14 -3 -6 -6z"/>
<path d="M5575 1420 c6 -9 4 -12 -7 -8 -8 4 -15 1 -15 -6 0 -17 25 -16 31 0 3
8 0 16 -6 20 -7 5 -8 2 -3 -6z"/>
<path d="M5630 1421 c0 -6 4 -13 10 -16 6 -3 7 1 4 9 -7 18 -14 21 -14 7z"/>
<path d="M5013 1405 c0 -8 3 -13 5 -10 3 3 15 -3 26 -12 15 -13 14 -10 -3 10
-29 32 -28 31 -28 12z"/>
<path d="M5293 1403 c1 -17 4 -19 14 -11 15 12 18 22 4 14 -5 -4 -11 0 -14 6
-3 7 -4 3 -4 -9z"/>
<path d="M5501 1398 l-14 -23 24 20 c13 11 26 21 28 22 2 2 -2 3 -10 3 -8 0
-20 -10 -28 -22z"/>
<path d="M5752 1415 c4 -4 0 -14 -10 -22 -16 -12 -16 -13 2 -6 12 4 17 3 13
-4 -4 -6 3 -19 16 -29 22 -19 22 -19 6 1 -9 11 -15 28 -14 37 2 10 -2 21 -8
25 -7 3 -9 3 -5 -2z"/>
<path d="M5972 1411 c-8 -4 -34 -7 -59 -5 -24 1 -42 -1 -38 -4 3 -3 29 -6 59
-7 37 0 53 3 53 12 0 7 -1 13 -1 13 -1 0 -7 -4 -14 -9z"/>
<path d="M5446 1398 c3 -5 10 -6 15 -3 13 9 11 12 -6 12 -8 0 -12 -4 -9 -9z"/>
<path d="M5603 1398 c-13 -22 -11 -65 3 -65 9 0 10 4 4 12 -10 12 -9 33 3 53
5 6 6 12 3 12 -3 0 -8 -6 -13 -12z"/>
<path d="M6139 1408 c-5 -18 -6 -38 -1 -34 7 8 12 36 6 36 -2 0 -4 -1 -5 -2z"/>
<path d="M4770 1379 c0 -5 5 -7 10 -4 6 3 10 8 10 11 0 2 -4 4 -10 4 -5 0 -10
-5 -10 -11z"/>
<path d="M5320 1375 c-7 -9 -11 -17 -9 -20 3 -2 10 5 17 15 14 24 10 26 -8 5z"/>
<path d="M5427 1379 c7 -7 15 -10 18 -7 3 3 -2 9 -12 12 -14 6 -15 5 -6 -5z"/>
<path d="M5668 1383 c7 -3 16 -2 19 1 4 3 -2 6 -13 5 -11 0 -14 -3 -6 -6z"/>
<path d="M5788 1383 c7 -3 16 -2 19 1 4 3 -2 6 -13 5 -11 0 -14 -3 -6 -6z"/>
<path d="M5209 1363 c-13 -16 -12 -17 4 -4 9 7 17 15 17 17 0 8 -8 3 -21 -13z"/>
<path d="M5379 1378 c-5 -18 -6 -38 -1 -34 7 8 12 36 6 36 -2 0 -4 -1 -5 -2z"/>
<path d="M5699 1378 c-5 -18 -6 -38 -1 -34 7 8 12 36 6 36 -2 0 -4 -1 -5 -2z"/>
<path d="M5815 1370 c-4 -6 -11 -7 -17 -4 -7 4 -8 2 -4 -5 6 -9 11 -9 22 0 14
11 18 19 10 19 -3 0 -8 -5 -11 -10z"/>
<path d="M5896 1367 c3 -10 9 -15 12 -12 3 3 0 11 -7 18 -10 9 -11 8 -5 -6z"/>
<path d="M5936 1367 c3 -10 9 -15 12 -12 3 3 0 11 -7 18 -10 9 -11 8 -5 -6z"/>
<path d="M4855 1360 c-3 -5 -1 -10 4 -10 6 0 11 5 11 10 0 6 -2 10 -4 10 -3 0
-8 -4 -11 -10z"/>
<path d="M5470 1358 c0 -6 3 -8 7 -5 3 4 13 1 22 -6 14 -11 14 -10 2 6 -15 20
-31 22 -31 5z"/>
<path d="M5634 1358 c-4 -7 -4 -10 1 -6 4 4 15 2 24 -5 14 -11 14 -10 2 6 -16
20 -18 21 -27 5z"/>
<path d="M6235 1351 c-3 -5 -2 -12 3 -15 5 -3 9 1 9 9 0 17 -3 19 -12 6z"/>
<path d="M5480 1320 c-9 -6 -10 -10 -3 -10 6 0 15 5 18 10 8 12 4 12 -15 0z"/>
<path d="M5646 1322 c-3 -5 1 -9 9 -9 8 0 12 4 9 9 -3 4 -7 8 -9 8 -2 0 -6 -4
-9 -8z"/>
<path d="M5115 1309 c-4 -6 -5 -12 -2 -15 2 -3 7 2 10 11 7 17 1 20 -8 4z"/>
<path d="M4626 1298 c3 -5 10 -6 15 -3 13 9 11 12 -6 12 -8 0 -12 -4 -9 -9z"/>
<path d="M5156 1298 c3 -4 11 -5 19 -1 21 7 19 12 -4 10 -11 0 -18 -5 -15 -9z"/>
<path d="M5330 1299 c0 -5 5 -7 10 -4 6 3 10 8 10 11 0 2 -4 4 -10 4 -5 0 -10
-5 -10 -11z"/>
<path d="M5890 1299 c0 -5 5 -7 10 -4 6 3 10 8 10 11 0 2 -4 4 -10 4 -5 0 -10
-5 -10 -11z"/>
<path d="M5935 1300 c3 -5 8 -10 11 -10 2 0 4 5 4 10 0 6 -5 10 -11 10 -5 0
-7 -4 -4 -10z"/>
<path d="M5496 1258 c3 -5 10 -6 15 -3 13 9 11 12 -6 12 -8 0 -12 -4 -9 -9z"/>
<path d="M5605 1260 c-3 -6 1 -7 9 -4 18 7 21 14 7 14 -6 0 -13 -4 -16 -10z"/>
<path d="M5655 1260 c3 -5 8 -10 11 -10 2 0 4 5 4 10 0 6 -5 10 -11 10 -5 0
-7 -4 -4 -10z"/>
<path d="M5553 1245 c0 -8 4 -12 9 -9 5 3 6 10 3 15 -9 13 -12 11 -12 -6z"/>
<path d="M5715 1201 c-3 -5 -2 -12 3 -15 5 -3 9 1 9 9 0 17 -3 19 -12 6z"/>
<path d="M7653 1150 c2 -7 5 -10 7 -9 3 1 16 -3 30 -10 23 -11 24 -11 6 3 -10
9 -22 13 -27 11 -4 -3 -10 0 -12 5 -4 7 -5 6 -4 0z"/>
<path d="M7630 1141 c0 -10 29 -36 34 -30 1 2 -6 12 -16 22 -10 9 -18 13 -18
8z"/>
<path d="M7580 1120 c0 -4 7 -7 15 -6 23 3 26 12 5 13 -11 1 -20 -2 -20 -7z"/>
<path d="M7635 1101 c6 -11 4 -13 -8 -8 -10 4 -14 2 -11 -7 6 -17 32 -16 30 0
-1 8 -6 17 -11 21 -4 5 -5 2 0 -6z"/>
<path d="M7670 1100 c-8 -5 -10 -10 -5 -10 6 0 17 5 25 10 8 5 11 10 5 10 -5
0 -17 -5 -25 -10z"/>
<path d="M7708 1072 c9 -10 19 -17 21 -16 6 5 -20 34 -30 34 -5 0 -1 -8 9 -18z"/>
<path d="M7692 1060 c2 -10 -4 -15 -18 -14 -11 0 -21 -5 -21 -12 0 -7 4 -11 9
-8 5 3 16 0 24 -7 12 -10 13 -9 8 6 -5 12 -4 16 3 12 13 -8 11 18 -1 30 -4 4
-6 1 -4 -7z"/>
<path d="M7590 1039 c0 -5 5 -7 10 -4 6 3 10 8 10 11 0 2 -4 4 -10 4 -5 0 -10
-5 -10 -11z"/>
<path d="M8032 1034 c10 -10 20 -16 22 -13 3 3 -5 11 -17 18 -21 13 -21 12 -5
-5z"/>
<path d="M7366 1022 c-3 -5 1 -9 9 -9 8 0 12 4 9 9 -3 4 -7 8 -9 8 -2 0 -6 -4
-9 -8z"/>
<path d="M7600 1020 c-9 -6 -10 -10 -3 -10 6 0 15 5 18 10 8 12 4 12 -15 0z"/>
<path d="M7750 1021 c0 -5 8 -15 18 -22 15 -12 16 -12 5 2 -7 9 -10 19 -6 22
3 4 1 7 -5 7 -7 0 -12 -4 -12 -9z"/>
<path d="M8076 1017 c3 -10 9 -15 12 -12 3 3 0 11 -7 18 -10 9 -11 8 -5 -6z"/>
<path d="M7636 998 c3 -5 10 -6 15 -3 13 9 11 12 -6 12 -8 0 -12 -4 -9 -9z"/>
<path d="M8117 993 c-10 -9 -9 -23 1 -23 5 0 9 7 9 15 0 17 -1 18 -10 8z"/>
<path d="M7665 979 c-3 -4 2 -6 10 -5 21 3 28 13 10 13 -9 0 -18 -4 -20 -8z"/>
<path d="M7795 980 c6 -10 4 -12 -8 -7 -21 8 -22 3 -3 -12 10 -9 15 -8 19 3 4
9 1 18 -5 22 -7 5 -8 2 -3 -6z"/>
<path d="M7713 952 c2 -12 6 -24 10 -28 3 -4 4 4 2 16 -6 30 -16 40 -12 12z"/>
<path d="M7676 947 c3 -10 9 -15 12 -12 3 3 0 11 -7 18 -10 9 -11 8 -5 -6z"/>
<path d="M8118 933 c7 -3 16 -2 19 1 4 3 -2 6 -13 5 -11 0 -14 -3 -6 -6z"/>
<path d="M7826 902 c-3 -5 1 -9 9 -9 8 0 12 4 9 9 -3 4 -7 8 -9 8 -2 0 -6 -4
-9 -8z"/>
<path d="M8175 890 c-4 -6 -12 -7 -18 -4 -7 4 -9 4 -5 -1 4 -4 2 -15 -4 -24
-7 -9 0 -5 15 8 15 14 27 26 27 28 0 7 -9 3 -15 -7z"/>
<path d="M7699 868 c-5 -18 -6 -38 -1 -34 7 8 12 36 6 36 -2 0 -4 -1 -5 -2z"/>
<path d="M7839 853 c-13 -16 -12 -17 4 -4 9 7 17 15 17 17 0 8 -8 3 -21 -13z"/>
<path d="M7874 852 c0 -10 6 -19 13 -19 8 0 9 6 2 19 -5 10 -11 18 -12 18 -2
0 -3 -8 -3 -18z"/>
<path d="M8226 838 c3 -5 10 -6 15 -3 13 9 11 12 -6 12 -8 0 -12 -4 -9 -9z"/>
<path d="M7835 821 c-3 -5 -2 -12 3 -15 5 -3 9 1 9 9 0 17 -3 19 -12 6z"/>
<path d="M7875 811 c-3 -5 -2 -12 3 -15 5 -3 9 1 9 9 0 17 -3 19 -12 6z"/>
<path d="M8255 791 c-3 -5 -2 -12 3 -15 5 -3 9 1 9 9 0 17 -3 19 -12 6z"/>
<path d="M7910 758 c0 -4 4 -8 9 -8 6 0 12 4 15 8 3 5 -1 9 -9 9 -8 0 -15 -4
-15 -9z"/>
<path d="M7859 748 c-5 -18 -6 -38 -1 -34 7 8 12 36 6 36 -2 0 -4 -1 -5 -2z"/>
<path d="M8215 740 c3 -5 8 -10 11 -10 2 0 4 5 4 10 0 6 -5 10 -11 10 -5 0 -7
-4 -4 -10z"/>
<path d="M7906 718 c3 -5 10 -6 15 -3 13 9 11 12 -6 12 -8 0 -12 -4 -9 -9z"/>
<path d="M7955 720 c-3 -5 -1 -10 4 -10 6 0 11 5 11 10 0 6 -2 10 -4 10 -3 0
-8 -4 -11 -10z"/>
<path d="M8015 700 c-3 -6 1 -7 9 -4 18 7 21 14 7 14 -6 0 -13 -4 -16 -10z"/>
</g>
</svg>
