<svg xmlns="http://www.w3.org/2000/svg" viewBox="0 0 437.32 381.74"><defs><style>.cls-1{fill:#f6a1a6;}.cls-2{fill:#ec7079;}.cls-3{fill:#3c2415;}</style></defs><g id="Layer_2" data-name="Layer 2"><g id="Layer_1-2" data-name="Layer 1"><path class="cls-1" d="M93.27,140.11a0,0,0,0,1,0,0c11.32-20.36,32.3-29.66,53-38.07,28-11.4,55.6-22.52,80.82-39.49,12.13-8.16,24.14-18.2,30.71-31.58s2.54-29.43-14.68-24.1c-18.34,5.68-28.86,37.92-34.66,56.5q4.54-2.46,8.87-5.26c4.35-13.26,9.17-26.64,16.38-38.63,2.92-4.86,6-10,12.41-9.56,15.43,1,6.53,21.16,1.7,28A95.14,95.14,0,0,1,222,62.18a2.68,2.68,0,0,1-1.69,1.11c-14.12,8.95-30.16,15.17-45.91,20.45-17.28,5.79-34.91,11.33-50.17,21.59-14,9.43-25.47,21.94-35.72,35.26.86-.08,1.72-.11,2.58-.14A2.29,2.29,0,0,1,93.27,140.11Z"/><path class="cls-1" d="M194.35,151.44A143.68,143.68,0,0,1,161.84,201a74.6,74.6,0,0,1-.61,11.18c0,.44-.12.88-.17,1.32,34.42-36.5,44.85-86,50.82-134.42-2.35,1.28-4.67,2.51-6.9,3.67C201.16,106.62,203.26,128.32,194.35,151.44Z"/><path class="cls-1" d="M366.45,194.06c0-2.16.05-4.31,0-6.48-13.55,15.78-33.26,30.23-52.77,38.26,2.35.76,4.66,1.64,7,2.6A306,306,0,0,0,366.45,194.06Z"/><path class="cls-1" d="M372,196.81c-.58,19.91-4.49,39.21-17.12,57.08.31.39.65.74,1,1.13.68.85,1.22,1.77,1.82,2.66,23.92-29.84,20.53-73.41,20.14-109.46-.28-25-11.36-66.65,14.05-83.67,20-13.42,38.5,3.73,35.67,24.91-4.07,30.39-20.3,61.18-40.86,83.53a2.56,2.56,0,0,1-1.86.88q0,2.56,0,5.13c21.83-19,34.94-44.85,42.43-72.61,4.93-18.27,8.64-43-15.88-47.57-21.58-4-31.54,12.83-37.08,31.08-10.21,33.59-1.76,69.55-2.18,103.83A2.51,2.51,0,0,1,372,196.81Z"/><path class="cls-1" d="M147.41,264.76a76.37,76.37,0,0,0,56.87,24.48,2.82,2.82,0,0,1,1.5.44c.78-2.32,1.65-4.61,2.59-6.87A63.65,63.65,0,0,1,150,259.29C149.19,261.14,148.32,263,147.41,264.76Z"/><path class="cls-2" d="M89.84,250.13c6.66-14.95,15-29.42,22.55-43.31q12-22,24.9-43.41a71.61,71.61,0,0,0-9.85-6.87q-15.36,28.13-32.28,55.37c-4.89,7.87-10,16.79-15.59,25.55a248.43,248.43,0,0,0-13.13,29.18c-1.34,3.69-6.41,15.48-1.28,15.13,5.43-.37,13.4-14.81,16.06-18.67C84.17,258.83,87,254.5,89.84,250.13Z"/><path class="cls-2" d="M94.31,199.44q13.45-23.15,27.84-45.76a81.25,81.25,0,0,0-8.49-3.47Q96.56,176.51,78.15,202C69,214.58,59.51,228.87,48.59,241.23A136.75,136.75,0,0,0,42,255.73c-1.88,4.91-6.07,15.38,2.19,13,6.54-1.86,13.29-12.55,17.24-17.58C66.27,245,70.94,238.52,75.49,232,81.55,220.82,88.19,210,94.31,199.44Z"/><path class="cls-2" d="M40.86,171.21C24.5,185.67,11.72,204.89,7,226.41a59.24,59.24,0,0,0-1.32,7.94c0,.14,0,.24,0,.37.11-.11.29-.18.38-.3,2-2.58,5.32-4.72,7.66-7,25.82-25.14,49.06-53.29,72.12-81C69.31,148.79,52.62,160.8,40.86,171.21Z"/><path class="cls-2" d="M338.64,246.69c-2.95-2.33-6-4.48-9.14-6.49q-12.36,21-24,42.33c-11.81,21.62-24.07,43.62-32.66,66.76-1,2.64-6.1,16.82-3.3,16.89,4.82.13,12.72-14.95,14.91-18.3,6.7-10.26,13-20.84,19-31.59C313.79,292.27,326.81,268.92,338.64,246.69Z"/><path class="cls-2" d="M331.75,314.84c.41-1.1.82-2.21,1.24-3.31q9.13-24.09,19.33-47.79a.14.14,0,0,0,0-.07h0c.1-.23.19-.47.29-.7a2.27,2.27,0,0,1,.5-.69,54.31,54.31,0,0,0-9.89-11.67C336.13,265.54,328.66,280.3,321,295c-.67,1.41-1.38,2.81-2.05,4.22-6.41,13.61-12.63,27.35-18,41.42-2.86,7.51-10.55,22.37-8.38,30.71,2.67,10.27,13.24-6.72,16-11,8-12.37,14.32-25.85,20.38-39.24C329.94,319,330.83,316.91,331.75,314.84Z"/><path class="cls-2" d="M356.46,269.38q-8.82,23.89-19.12,47.24c-4.15,11-8.18,22.16-11.57,33.46-1.09,3.62-8.17,22-4.68,25.19,7.32,6.7,28.29-37.56,30.21-42.52,7.08-18.34,11.19-40.37,6.36-59.76A36.35,36.35,0,0,0,356.46,269.38Z"/><path class="cls-2" d="M122.12,266c-1.84,6.62-4.6,14.34-4.49,21.31,0,.65-.33,2.14.09,2.72-.91-1.25,3-2.07,5.41-3.72,6.63-4.49,11.88-11.69,15.93-18.41,9.72-16.12,13.1-34.24,15.84-52.58,1.91-12.77,1.21-23.35-3.6-33.87C140.54,209.16,130.08,237.28,122.12,266Z"/><path class="cls-2" d="M146.56,177.43a3,3,0,0,1,1.7-1.72c-.78-1.29-1.58-2.59-2.49-3.89-1.21-1.47-2.51-2.86-3.86-4.22q-14.32,28.56-30,56.44c-5.5,9.75-11.17,21.2-17.7,32-2.88,6.4-12.88,24.74-9.51,31.72s14.59-11.87,16.79-15.42c7.63-12.32,14.08-25.4,20.31-38.48Q135.05,206.08,146.56,177.43Z"/><path class="cls-2" d="M206.42,326.65c2-1.49,3.77-3.91,5.36-5.65,5.42-5.91,10.51-12.12,15.59-18.31q15-18.22,29.39-36.89,14.31-19.56,29.41-38.55a80.24,80.24,0,0,0-21.27,3.39c-32.89,16.66-57.39,50.2-58.44,87.77C206.42,319.72,207.21,324.06,206.42,326.65Z"/><path class="cls-2" d="M220.52,333.78c-2.16,5.4-5.53,13.64,2.72,8.9,7.19-4.13,13.13-12.62,18.31-18.89,4.73-5.73,9.3-11.6,13.81-17.54,6.8-11.09,14.21-21.82,21-32.14q14.71-22.49,30.31-44.39a70.93,70.93,0,0,0-13.7-2.3,2.26,2.26,0,0,1-.45,1.21c-12.88,17.09-25.7,34.43-38.94,51.42C241.24,296.87,228.18,314.59,220.52,333.78Z"/><path class="cls-2" d="M260.72,309.59a275.89,275.89,0,0,0-15.21,29c-1.49,3.37-8,16.54-2.5,16.37,5.33-.16,14.09-13.71,16.93-17.31,18.77-23.79,35.12-49.85,50.55-76.19q6.87-12.19,14-24.25c-1.24-.71-2.48-1.46-3.73-2.1a2.71,2.71,0,0,1-2.82-1.27c-1.75-.79-3.49-1.61-5.26-2.26q-16.92,27.09-35.08,53.4C272.12,292.83,266.58,301.28,260.72,309.59Z"/><path class="cls-2" d="M43.9,236.54c9.05-16.89,21.7-32.8,32.29-47.36q15.14-20.81,31.32-40.87A75.72,75.72,0,0,0,94.61,146c-.26,0-.51,0-.77,0q-17.11,20.31-33.19,41.5C47.09,205.34,32,224.08,22.87,244.73c-2.28,5.18-6.56,14.19,2,10.39C31.78,252,38.1,243.21,43,237.66Z"/><path class="cls-3" d="M145.57,171.51c9.89,14,11.84,27,9.33,43.77-2.74,18.34-6.12,36.46-15.84,52.58-4.05,6.72-9.3,13.92-15.93,18.41-2.44,1.65-6.32,2.47-5.41,3.72-.42-.58-.08-2.07-.09-2.72-.11-7,2.65-14.69,4.49-21.31,8.19-29.51,19-58.43,30.1-87,1.37-3.54-4.28-5-5.66-1.57q-11.48,28.6-24.75,56.46c-6.23,13.08-12.68,26.16-20.31,38.48-2.2,3.55-13.38,22.51-16.79,15.42s7-26,9.68-32.09c6.11-13.93,13.13-27.48,20.33-40.87q13.86-25.74,29-50.77l-5.08-3c-17.3,34.77-35.33,70-57.43,102-2.66,3.86-10.63,18.3-16.06,18.67-5.13.35-.06-11.44,1.28-15.13,8.53-23.35,21.88-45.34,34.39-66.71q13.55-23.16,28-45.79l-5.07-3c-18.61,34.29-38.2,69.3-62.34,100-4,5-10.7,15.72-17.24,17.58-8.26,2.34-4.07-8.13-2.19-13,8.6-22.51,24.44-43.08,38.47-62.42,10.93-15.06,22.22-29.89,34-44.32l-4.61-3.55C89.26,177.16,67.84,209.17,43,237.66,38.1,243.21,31.78,252,24.84,255.12c-8.53,3.8-4.25-5.21-2-10.39,9.08-20.65,24.22-39.39,37.78-57.21q16.47-21.65,34-42.48c-1.39-1.38-2.77-2.77-4.15-4.15-24.57,29.49-49.17,59.72-76.7,86.52-2.34,2.29-5.68,4.43-7.66,7-.76,1-2.2,1.48-3.2,2.16q3.68,4,2.78-2.23A59.24,59.24,0,0,1,7,226.41c4.69-21.52,17.47-40.74,33.83-55.2C54.68,159,75.32,144.47,94.61,146S134,157.13,146,172.1c2.37,3,6.51-1.23,4.15-4.15-16.77-20.79-50.38-34.39-76-24.06-32.82,13.21-61,40.5-71.19,74.88-3.48,11.78-7,31.91,8.86,18.5C29,222.8,43.51,204.57,58.2,187.74Q76.65,166.61,94.64,145c2.4-2.88-1.71-7-4.15-4.15-11.72,13.87-23,28.09-34,42.52-14.63,19.18-34.06,41.13-41.21,64.67-4.1,13.53,4.94,17.84,15.48,10C49.86,243.91,64.36,221,78.15,202q19-26.3,36.71-53.55c1.78-2.75-2.48-6.17-4.61-3.56-11.77,14.44-23.1,29.28-34.06,44.34-15.06,20.69-34.31,44.12-41.38,69.2-3.46,12.27,2.81,22.31,15,13.57,19.43-13.88,33-40.28,45.31-60q17.64-28.38,33.63-57.77c1.81-3.34-3-6.15-5.07-3Q108.47,175,94.31,199.44C81.22,221.92,65.68,246,58.7,271.28c-2.85,10.33.37,23,12.36,13.37,18-14.47,29.79-41,40.86-60.61s21.73-39.73,31.81-60c1.67-3.36-3.09-6.23-5.08-3Q125,183.62,112.39,206.82c-12,22-25.87,45.45-32,70-2.22,8.81-1.34,25.39,11.7,16.86,6.83-4.47,11.7-13.6,15.76-20.35,7.07-11.75,13.18-24.07,19.07-36.44q13.58-28.5,25.34-57.86l-5.66-1.57q-9.52,24.51-18.1,49.38c-4.43,12.8-8.76,25.68-12.33,38.75-1.9,6.95-5.35,16-4.39,23.42,2.81,21.74,31.94-17.09,34.56-22,9.09-16.85,12.55-36,14.93-54.8,2.12-16.72-.8-29.78-10.59-43.68C148.48,165.48,143.38,168.41,145.57,171.51Z"/><path class="cls-3" d="M262.34,225.35c-32.51,16.3-56.88,48.15-61.14,84.7-.59,5.07-4.81,24.23,4.19,24.27,3.88,0,9-7.49,11.14-9.83,27.34-30.07,51.52-63.42,76-95.86,2-2.64-2.52-6.16-4.61-3.56-11.69,14.56-23,29.46-34,44.56-14.48,19.93-33.84,42.75-40.65,66.92-3.91,13.9,5.77,17.09,15.8,9,19.62-15.81,34.36-40.13,48.5-60.6q18.9-27.37,36.5-55.62c2-3.27-2.91-6-5.07-3q-16.87,23.49-32.66,47.74C262,296,244.6,319.66,236.71,344.93c-3.53,11.27.88,21.66,12.82,12.61,19.49-14.76,33.33-41.28,46.18-61.46q18.48-29,35.53-58.9c1.88-3.29-3.14-6.22-5.07-3q-14,23.66-27.11,47.85C286.47,305.22,272,329.51,264.69,355c-2.54,8.89-1.59,23.78,10.52,14.18,7.06-5.6,12.18-14.93,16.89-22.4,7.6-12.07,14.52-24.58,21.26-37.15q15.92-29.67,30.41-60.09c1.6-3.37-3.28-6.34-5.07-3-19,35.69-41.07,74.26-50.35,113.87-1.87,8-3.33,25.37,10.28,19.49,7.2-3.1,12.44-12.45,16.34-18.72,7.1-11.41,12.93-23.65,18.5-35.87,9-19.69,17.15-39.8,24.54-60.14,1.12-3.09-4.05-5.32-5.37-2.26Q342.28,287,333,311.53c-4.93,13-9.72,26-13.59,39.37-2,6.88-5.92,16.82-4.31,24.18,5,22.57,31.82-19,34.28-23.82,13.3-25.92,27-70.35,6.5-96.24-21.91-27.63-59.35-40.14-92.82-30-3.61,1.1-2.07,6.77,1.56,5.66,22.11-6.71,43.53-4,63.1,8.32,12.92,8.14,26.13,18.59,30,34,4.83,19.39.72,41.42-6.36,59.76-1.92,5-22.89,49.22-30.21,42.52-3.49-3.19,3.59-21.57,4.68-25.19,3.62-12,7.92-23.88,12.37-35.63q9.24-24.46,19.57-48.52l-5.37-2.26c-7,19.4-14.83,38.58-23.33,57.38-6.06,13.39-12.4,26.87-20.38,39.24-2.78,4.31-13.35,21.3-16,11-2.17-8.34,5.52-23.2,8.38-30.71,5.34-14.07,11.56-27.81,18-41.42,7.88-16.72,16.12-33.31,24.81-49.63l-5.07-3c-16.4,34.42-33.38,69.32-54.26,101.28-2.19,3.35-10.09,18.43-14.91,18.3-2.8-.07,2.33-14.25,3.3-16.89,8.59-23.14,20.85-45.14,32.66-66.76q12.51-22.87,25.75-45.35l-5.07-3c-20.13,35.36-41,71.42-66.23,103.41-2.84,3.6-11.6,17.15-16.93,17.31-5.52.17,1-13,2.5-16.37,9.94-22.47,24-43.41,37.45-63.87q15.1-23,31.1-45.36l-5.07-3c-20.76,33.41-42.36,67.07-67.44,97.42-5.18,6.27-11.12,14.76-18.31,18.89-8.25,4.74-4.87-3.5-2.72-8.9,8.62-21.6,24.09-41.34,37.62-60q16.41-22.67,33.89-44.54l-4.61-3.56c-19.58,26-39.41,51.86-60.05,77-5.08,6.19-10.17,12.4-15.59,18.31-1.74,1.9-3.7,4.66-5.9,6.08-.27.18-1.5,1.6-2,1.56,4.32.41,2.48-8.29,2.54-10.23,1.06-37.73,25.76-71.4,58.85-88C268.69,228.72,265.72,223.66,262.34,225.35Z"/><path class="cls-3" d="M148.21,257a63.88,63.88,0,0,0,62.61,25.46c3.73-.62,2.15-6.28-1.56-5.67a57.6,57.6,0,0,1-56-22.75c-2.22-3-7.32-.09-5.07,3Z"/><path class="cls-3" d="M143.11,268.77a82.4,82.4,0,0,0,61.17,26.35c3.78,0,3.78-5.89,0-5.88a76.36,76.36,0,0,1-57-24.62c-2.59-2.76-6.74,1.4-4.15,4.15Z"/><path class="cls-3" d="M98.35,143.05c10.56-19,30.26-27.51,49.48-35.38C165.32,100.52,183.08,94,200,85.37c24.67-12.54,62.56-32.95,67.36-63.67,2.57-16.51-12.55-25.76-27.56-20-21.58,8.34-32.07,44.5-38.31,64.36-1.13,3.61,4.54,5.16,5.67,1.56,5.45-17.37,16.15-54.67,36-60.82,17.22-5.33,21.2,10.79,14.68,24.1s-18.58,23.42-30.71,31.58c-25.22,17-52.8,28.09-80.82,39.49-20.69,8.41-41.67,17.71-53,38.07-1.84,3.31,3.23,6.28,5.07,3Z"/><path class="cls-3" d="M84.93,145.24c11.15-15,23.59-29.39,39.25-39.91,15.26-10.26,32.89-15.8,50.17-21.59,27.55-9.24,56-21.31,73.47-45.9,4.83-6.79,13.73-27-1.7-27.95-6.43-.41-9.49,4.7-12.41,9.56C226.19,32,221.24,46,216.75,59.81c-1.18,3.6,4.49,5.15,5.66,1.56,3.67-11.29,7.64-22.56,13.12-33.12,1.53-3,6.47-14.93,11.28-12.35,6.93,3.72-4.15,19-6,21.33-15.51,19.55-38.09,30.51-61.13,38.51-20,6.94-40.72,12.59-58.47,24.51-16.53,11.11-29.57,26.14-41.35,42-2.25,3,2.84,6,5.07,3Z"/><path class="cls-3" d="M360.89,263.08c29.43-35.11,24.32-91,22.3-133.73-.64-13.7-3.45-28.43.23-41.92,2.87-10.52,10.44-21.55,22.7-21.52,17.38,0,16.72,18.79,13.95,30.92a160.33,160.33,0,0,1-37.54,72c-2.55,2.78,1.59,6.94,4.16,4.15,20.56-22.35,36.79-53.14,40.86-83.53,2.83-21.18-15.65-38.33-35.67-24.91-25.41,17-14.33,58.66-14.05,83.67.4,36.55,3.93,80.85-21.09,110.71-2.41,2.88,1.72,7.06,4.15,4.15Z"/><path class="cls-3" d="M353.69,255.64c37-49.8,3.92-110.93,20.58-165.74,5.54-18.25,15.5-35.12,37.08-31.08,24.52,4.6,20.81,29.3,15.88,47.57-7.83,29.06-21.72,56.15-45.44,75.3-3,2.37,1.23,6.51,4.15,4.15,26.68-21.53,42-53.71,49.16-86.76,2.53-11.66,4.49-25.62-3.49-35.72C424.1,53.84,410.39,51,398.86,52.49c-30.2,3.82-35.22,50.85-35.29,74.57-.14,43.06,13,88-14.95,125.62-2.25,3,2.84,6,5.07,3Z"/><path class="cls-3" d="M321.69,234.75a313.39,313.39,0,0,0,50-37.52c2.79-2.56-1.37-6.71-4.15-4.15a306.07,306.07,0,0,1-48.84,36.59c-3.23,2-.28,7,3,5.08Z"/><path class="cls-3" d="M306.89,228.45c22.78-7.58,47-25,62.07-43.71,2.34-2.93-1.79-7.11-4.16-4.16-14.42,18-37.52,34.89-59.48,42.2-3.57,1.19-2,6.86,1.57,5.67Z"/><path class="cls-3" d="M199.34,81.05c-3.26,20.17-1.37,40-7.54,59.85a137.15,137.15,0,0,1-34.9,56.82c-2.69,2.67,1.46,6.82,4.15,4.15a143.88,143.88,0,0,0,33.3-50.43c8.94-23.18,6.79-44.93,10.65-68.83.6-3.7-5.06-5.29-5.66-1.56Z"/><path class="cls-3" d="M212.45,74.52c-6,51-16.25,103.69-53.72,141.54-2.67,2.69,1.49,6.85,4.15,4.16,38.61-39,49.23-93.12,55.45-145.7.44-3.74-5.44-3.71-5.88,0Z"/><path class="cls-3" d="M145.57,171.51c9.89,14,11.84,27,9.33,43.77-2.74,18.34-6.12,36.46-15.84,52.58-4.05,6.72-9.3,13.92-15.93,18.41-2.44,1.65-6.32,2.47-5.41,3.72-.42-.58-.08-2.07-.09-2.72-.11-7,2.65-14.69,4.49-21.31,8.19-29.51,19-58.43,30.1-87,1.37-3.54-4.28-5-5.66-1.57q-11.48,28.6-24.75,56.46c-6.23,13.08-12.68,26.16-20.31,38.48-2.2,3.55-13.38,22.51-16.79,15.42s7-26,9.68-32.09c6.11-13.93,13.13-27.48,20.33-40.87q13.86-25.74,29-50.77l-5.08-3c-17.3,34.77-35.33,70-57.43,102-2.66,3.86-10.63,18.3-16.06,18.67-5.13.35-.06-11.44,1.28-15.13,8.53-23.35,21.88-45.34,34.39-66.71q13.55-23.16,28-45.79l-5.07-3c-18.61,34.29-38.2,69.3-62.34,100-4,5-10.7,15.72-17.24,17.58-8.26,2.34-4.07-8.13-2.19-13,8.6-22.51,24.44-43.08,38.47-62.42,10.93-15.06,22.22-29.89,34-44.32l-4.61-3.55C89.26,177.16,67.84,209.17,43,237.66,38.1,243.21,31.78,252,24.84,255.12c-8.53,3.8-4.25-5.21-2-10.39,9.08-20.65,24.22-39.39,37.78-57.21q16.47-21.65,34-42.48c-1.39-1.38-2.77-2.77-4.15-4.15-24.57,29.49-49.17,59.72-76.7,86.52-2.34,2.29-5.68,4.43-7.66,7-.76,1-2.2,1.48-3.2,2.16q3.68,4,2.78-2.23A59.24,59.24,0,0,1,7,226.41c4.69-21.52,17.47-40.74,33.83-55.2C54.68,159,75.32,144.47,94.61,146S134,157.13,146,172.1c2.37,3,6.51-1.23,4.15-4.15-16.77-20.79-50.38-34.39-76-24.06-32.82,13.21-61,40.5-71.19,74.88-3.48,11.78-7,31.91,8.86,18.5C29,222.8,43.51,204.57,58.2,187.74Q76.65,166.61,94.64,145c2.4-2.88-1.71-7-4.15-4.15-11.72,13.87-23,28.09-34,42.52-14.63,19.18-34.06,41.13-41.21,64.67-4.1,13.53,4.94,17.84,15.48,10C49.86,243.91,64.36,221,78.15,202q19-26.3,36.71-53.55c1.78-2.75-2.48-6.17-4.61-3.56-11.77,14.44-23.1,29.28-34.06,44.34-15.06,20.69-34.31,44.12-41.38,69.2-3.46,12.27,2.81,22.31,15,13.57,19.43-13.88,33-40.28,45.31-60q17.64-28.38,33.63-57.77c1.81-3.34-3-6.15-5.07-3Q108.47,175,94.31,199.44C81.22,221.92,65.68,246,58.7,271.28c-2.85,10.33.37,23,12.36,13.37,18-14.47,29.79-41,40.86-60.61s21.73-39.73,31.81-60c1.67-3.36-3.09-6.23-5.08-3Q125,183.62,112.39,206.82c-12,22-25.87,45.45-32,70-2.22,8.81-1.34,25.39,11.7,16.86,6.83-4.47,11.7-13.6,15.76-20.35,7.07-11.75,13.18-24.07,19.07-36.44q13.58-28.5,25.34-57.86l-5.66-1.57q-9.52,24.51-18.1,49.38c-4.43,12.8-8.76,25.68-12.33,38.75-1.9,6.95-5.35,16-4.39,23.42,2.81,21.74,31.94-17.09,34.56-22,9.09-16.85,12.55-36,14.93-54.8,2.12-16.72-.8-29.78-10.59-43.68C148.48,165.48,143.38,168.41,145.57,171.51Z"/><path class="cls-3" d="M262.34,225.35c-32.51,16.3-56.88,48.15-61.14,84.7-.59,5.07-4.81,24.23,4.19,24.27,3.88,0,9-7.49,11.14-9.83,27.34-30.07,51.52-63.42,76-95.86,2-2.64-2.52-6.16-4.61-3.56-11.69,14.56-23,29.46-34,44.56-14.48,19.93-33.84,42.75-40.65,66.92-3.91,13.9,5.77,17.09,15.8,9,19.62-15.81,34.36-40.13,48.5-60.6q18.9-27.37,36.5-55.62c2-3.27-2.91-6-5.07-3q-16.87,23.49-32.66,47.74C262,296,244.6,319.66,236.71,344.93c-3.53,11.27.88,21.66,12.82,12.61,19.49-14.76,33.33-41.28,46.18-61.46q18.48-29,35.53-58.9c1.88-3.29-3.14-6.22-5.07-3q-14,23.66-27.11,47.85C286.47,305.22,272,329.51,264.69,355c-2.54,8.89-1.59,23.78,10.52,14.18,7.06-5.6,12.18-14.93,16.89-22.4,7.6-12.07,14.52-24.58,21.26-37.15q15.92-29.67,30.41-60.09c1.6-3.37-3.28-6.34-5.07-3-19,35.69-41.07,74.26-50.35,113.87-1.87,8-3.33,25.37,10.28,19.49,7.2-3.1,12.44-12.45,16.34-18.72,7.1-11.41,12.93-23.65,18.5-35.87,9-19.69,17.15-39.8,24.54-60.14,1.12-3.09-4.05-5.32-5.37-2.26Q342.28,287,333,311.53c-4.93,13-9.72,26-13.59,39.37-2,6.88-5.92,16.82-4.31,24.18,5,22.57,31.82-19,34.28-23.82,13.3-25.92,27-70.35,6.5-96.24-21.91-27.63-59.35-40.14-92.82-30-3.61,1.1-2.07,6.77,1.56,5.66,22.11-6.71,43.53-4,63.1,8.32,12.92,8.14,26.13,18.59,30,34,4.83,19.39.72,41.42-6.36,59.76-1.92,5-22.89,49.22-30.21,42.52-3.49-3.19,3.59-21.57,4.68-25.19,3.62-12,7.92-23.88,12.37-35.63q9.24-24.46,19.57-48.52l-5.37-2.26c-7,19.4-14.83,38.58-23.33,57.38-6.06,13.39-12.4,26.87-20.38,39.24-2.78,4.31-13.35,21.3-16,11-2.17-8.34,5.52-23.2,8.38-30.71,5.34-14.07,11.56-27.81,18-41.42,7.88-16.72,16.12-33.31,24.81-49.63l-5.07-3c-16.4,34.42-33.38,69.32-54.26,101.28-2.19,3.35-10.09,18.43-14.91,18.3-2.8-.07,2.33-14.25,3.3-16.89,8.59-23.14,20.85-45.14,32.66-66.76q12.51-22.87,25.75-45.35l-5.07-3c-20.13,35.36-41,71.42-66.23,103.41-2.84,3.6-11.6,17.15-16.93,17.31-5.52.17,1-13,2.5-16.37,9.94-22.47,24-43.41,37.45-63.87q15.1-23,31.1-45.36l-5.07-3c-20.76,33.41-42.36,67.07-67.44,97.42-5.18,6.27-11.12,14.76-18.31,18.89-8.25,4.74-4.87-3.5-2.72-8.9,8.62-21.6,24.09-41.34,37.62-60q16.41-22.67,33.89-44.54l-4.61-3.56c-19.58,26-39.41,51.86-60.05,77-5.08,6.19-10.17,12.4-15.59,18.31-1.74,1.9-3.7,4.66-5.9,6.08-.27.18-1.5,1.6-2,1.56,4.32.41,2.48-8.29,2.54-10.23,1.06-37.73,25.76-71.4,58.85-88C268.69,228.72,265.72,223.66,262.34,225.35Z"/><path class="cls-3" d="M148.21,257a63.88,63.88,0,0,0,62.61,25.46c3.73-.62,2.15-6.28-1.56-5.67a57.6,57.6,0,0,1-56-22.75c-2.22-3-7.32-.09-5.07,3Z"/><path class="cls-3" d="M143.11,268.77a82.4,82.4,0,0,0,61.17,26.35c3.78,0,3.78-5.89,0-5.88a76.36,76.36,0,0,1-57-24.62c-2.59-2.76-6.74,1.4-4.15,4.15Z"/><path class="cls-3" d="M98.35,143.05c10.56-19,30.26-27.51,49.48-35.38C165.32,100.52,183.08,94,200,85.37c24.67-12.54,62.56-32.95,67.36-63.67,2.57-16.51-12.55-25.76-27.56-20-21.58,8.34-32.07,44.5-38.31,64.36-1.13,3.61,4.54,5.16,5.67,1.56,5.45-17.37,16.15-54.67,36-60.82,17.22-5.33,21.2,10.79,14.68,24.1s-18.58,23.42-30.71,31.58c-25.22,17-52.8,28.09-80.82,39.49-20.69,8.41-41.67,17.71-53,38.07-1.84,3.31,3.23,6.28,5.07,3Z"/><path class="cls-3" d="M84.93,145.24c11.15-15,23.59-29.39,39.25-39.91,15.26-10.26,32.89-15.8,50.17-21.59,27.55-9.24,56-21.31,73.47-45.9,4.83-6.79,13.73-27-1.7-27.95-6.43-.41-9.49,4.7-12.41,9.56C226.19,32,221.24,46,216.75,59.81c-1.18,3.6,4.49,5.15,5.66,1.56,3.67-11.29,7.64-22.56,13.12-33.12,1.53-3,6.47-14.93,11.28-12.35,6.93,3.72-4.15,19-6,21.33-15.51,19.55-38.09,30.51-61.13,38.51-20,6.94-40.72,12.59-58.47,24.51-16.53,11.11-29.57,26.14-41.35,42-2.25,3,2.84,6,5.07,3Z"/><path class="cls-3" d="M360.89,263.08c29.43-35.11,24.32-91,22.3-133.73-.64-13.7-3.45-28.43.23-41.92,2.87-10.52,10.44-21.55,22.7-21.52,17.38,0,16.72,18.79,13.95,30.92a160.33,160.33,0,0,1-37.54,72c-2.55,2.78,1.59,6.94,4.16,4.15,20.56-22.35,36.79-53.14,40.86-83.53,2.83-21.18-15.65-38.33-35.67-24.91-25.41,17-14.33,58.66-14.05,83.67.4,36.55,3.93,80.85-21.09,110.71-2.41,2.88,1.72,7.06,4.15,4.15Z"/><path class="cls-3" d="M353.69,255.64c37-49.8,3.92-110.93,20.58-165.74,5.54-18.25,15.5-35.12,37.08-31.08,24.52,4.6,20.81,29.3,15.88,47.57-7.83,29.06-21.72,56.15-45.44,75.3-3,2.37,1.23,6.51,4.15,4.15,26.68-21.53,42-53.71,49.16-86.76,2.53-11.66,4.49-25.62-3.49-35.72C424.1,53.84,410.39,51,398.86,52.49c-30.2,3.82-35.22,50.85-35.29,74.57-.14,43.06,13,88-14.95,125.62-2.25,3,2.84,6,5.07,3Z"/><path class="cls-3" d="M321.69,234.75a313.39,313.39,0,0,0,50-37.52c2.79-2.56-1.37-6.71-4.15-4.15a306.07,306.07,0,0,1-48.84,36.59c-3.23,2-.28,7,3,5.08Z"/><path class="cls-3" d="M306.89,228.45c22.78-7.58,47-25,62.07-43.71,2.34-2.93-1.79-7.11-4.16-4.16-14.42,18-37.52,34.89-59.48,42.2-3.57,1.19-2,6.86,1.57,5.67Z"/><path class="cls-3" d="M199.34,81.05c-3.26,20.17-1.37,40-7.54,59.85a137.15,137.15,0,0,1-34.9,56.82c-2.69,2.67,1.46,6.82,4.15,4.15a143.88,143.88,0,0,0,33.3-50.43c8.94-23.18,6.79-44.93,10.65-68.83.6-3.7-5.06-5.29-5.66-1.56Z"/><path class="cls-3" d="M212.45,74.52c-6,51-16.25,103.69-53.72,141.54-2.67,2.69,1.49,6.85,4.15,4.16,38.61-39,49.23-93.12,55.45-145.7.44-3.74-5.44-3.71-5.88,0Z"/></g></g></svg>