<svg xmlns="http://www.w3.org/2000/svg" xmlns:xlink="http://www.w3.org/1999/xlink" viewBox="0 0 398.88 436.04"><defs><style>.cls-1{fill:none;}.cls-2{fill:#fae3ae;}.cls-3{fill:#f6a1a6;}.cls-4{clip-path:url(#clip-path);}.cls-5{fill:#fff7ee;}.cls-6{fill:#3c2415;}</style><clipPath id="clip-path"><path class="cls-1" d="M392,232c-5.54-27.58-31.09-53.22-48-73.94A247.38,247.38,0,0,0,198.81,270.83c-36.82-28.36-100.24-28.07-146.32-22a3,3,0,0,1-5.26.75c-3.72.55-7.39,1.13-11,1.77-1,19.27-2.05,38.55-3,57.83-.8,16.93-1.67,35.64,6.48,51.05a393.23,393.23,0,0,1,155-71.56,3.15,3.15,0,0,1,.53,0c.13-.28,21.09-7.11,21.35-7.34a7.79,7.79,0,0,0-1.05-2.61A579.09,579.09,0,0,1,392,232Z"/></clipPath></defs><g id="Layer_2" data-name="Layer 2"><g id="Layer_1-2" data-name="Layer 1"><path class="cls-2" d="M224.85,354.24a3,3,0,0,1-.13,2.71c1.64-.64,3.28-1.31,4.91-1.94,45.73-17.78,93.93-33,143.06-37.29,1.84-26.75,21-49.4,20.42-76.37,0-1.19-.18-2.38-.29-3.58A571.07,571.07,0,0,0,202.71,291,403.38,403.38,0,0,0,224.85,354.24Z"/><path class="cls-3" d="M278.21,9.85c11,8.54,18.87,28.68,22.08,37.71,12.52,35.22,21.21,72.18,31.52,108.1,3.45-1.15,6.94-2.21,10.44-3.22a2.61,2.61,0,0,1-.43-.73Q327,109.5,311.38,67.58c-5-13.31-9.34-27.38-16.19-39.87-3.44-6.28-9.84-17.4-18.39-19.33A3.39,3.39,0,0,1,278.21,9.85Z"/><path class="cls-3" d="M116.7,418.05l5.13,10.76c38.36-25.8,79.73-46.47,122.79-63.22,22.76-8.86,45.92-16.64,69.31-23.66,19-5.7,38.38-12.67,58.34-10.1.27-2.75.53-5.51.8-8.27-48.69,4.16-96.57,19.5-141.87,37.11C191.8,376,151.53,393.66,116.7,418.05Z"/><path class="cls-3" d="M36.1,245.48q4.45-.78,9-1.47c-10.78-31.69-21.3-63.7-25.95-96.94-2.27-16.27-3.54-33.23-1.77-49.61.77-7.13,2.31-13.48,7.11-18.07C5.42,76.74,5.93,122.61,7.21,135.54,10.91,173.07,24.63,209.79,36.1,245.48Z"/><path class="cls-3" d="M43.71,104.76Q55.08,126,65.11,148a799.69,799.69,0,0,1,34.78,90.8,2.75,2.75,0,0,1,0,1.5q6,.13,12.08.58a882.4,882.4,0,0,0-33.18-85.55C68.22,131.93,55.76,99.89,34.36,84A34.68,34.68,0,0,0,31,81.81,14.15,14.15,0,0,0,26.77,86C35.8,87.35,39.57,97,43.71,104.76Z"/><path class="cls-3" d="M52.49,248.86a3,3,0,0,1-5.26.75c-3.72.55-7.39,1.13-11,1.77-1,19.27-2.05,38.55-3,57.83-.8,16.93-1.67,35.64,6.48,51.05a393.23,393.23,0,0,1,155-71.56,3.15,3.15,0,0,1,.53,0,2.41,2.41,0,0,1,.57-.76q-1.66-6.69-3.09-13.45a3.12,3.12,0,0,1-1.13-.58C155.08,244.54,99.1,242.69,52.49,248.86Z"/><path class="cls-2" d="M111.75,412.81a2.43,2.43,0,0,1,2,.17c32.71-22.91,70.12-39.83,107.22-54.54a2.47,2.47,0,0,1-1.18-1.24,413.22,413.22,0,0,1-22.36-63.3,3,3,0,0,1-1,.47A386.89,386.89,0,0,0,42.79,365.29C59.07,388.5,91.57,393.51,111.75,412.81Z"/><path class="cls-3" d="M277,181.68a2.44,2.44,0,0,1-.1-.24c-6.59-32.07-13.2-64.34-15-97.11-1.18-21-4.27-52.64,8.7-71.55a7.34,7.34,0,0,0-6.42,0c-3.35,4.15-4.84,12.25-6.19,17-7.61,26.54-3.92,54.81-1,81.78q4.16,39,8.33,78.09C269.13,186.86,273,184.2,277,181.68Z"/><path class="cls-3" d="M392,232c-5.54-27.58-31.09-53.22-48-73.94A247.4,247.4,0,0,0,198.23,271.76q1.41,6.75,3.05,13.43A579.21,579.21,0,0,1,392,232Z"/><g class="cls-4"><path class="cls-5" d="M336.58,202.7c12.6,0,12.62-19.58,0-19.58s-12.62,19.58,0,19.58Z"/><path class="cls-5" d="M277.83,227.18c12.6,0,12.62-19.58,0-19.58s-12.62,19.58,0,19.58Z"/><path class="cls-5" d="M329.23,241.87v-2.45c0-5.12-4.5-10-9.79-9.79a10,10,0,0,0-9.79,9.79v2.45c0,5.12,4.5,10,9.79,9.79a10,10,0,0,0,9.79-9.79Z"/><path class="cls-5" d="M385.53,224.73c12.61,0,12.63-19.58,0-19.58s-12.62,19.58,0,19.58Z"/><path class="cls-5" d="M233.35,253.69c.81-.82,1.63-1.64,2.45-2.45,3.62-3.63,3.89-10.27,0-13.85a10,10,0,0,0-13.85,0l-2.45,2.45c-3.63,3.63-3.9,10.27,0,13.85a10,10,0,0,0,13.85,0Z"/><path class="cls-5" d="M297.41,185.57c12.6,0,12.62-19.59,0-19.59s-12.62,19.59,0,19.59Z"/><path class="cls-5" d="M348.82,163.54c12.6,0,12.62-19.59,0-19.59s-12.62,19.59,0,19.59Z"/><path class="cls-5" d="M263.14,268.79c12.6,0,12.62-19.58,0-19.58s-12.62,19.58,0,19.58Z"/><path class="cls-5" d="M199.5,288.38H202c5.12,0,10-4.51,9.79-9.8a10,10,0,0,0-9.79-9.79H199.5c-5.12,0-10,4.51-9.79,9.79a10,10,0,0,0,9.79,9.8Z"/><path class="cls-5" d="M162.78,268.79c12.6,0,12.62-19.58,0-19.58s-12.62,19.58,0,19.58Z"/><path class="cls-5" d="M140.75,315.3c12.6,0,12.62-19.58,0-19.58s-12.62,19.58,0,19.58Z"/><path class="cls-5" d="M123.61,259c12.6,0,12.63-19.58,0-19.58S111,259,123.61,259Z"/><path class="cls-5" d="M94.24,295.72c12.6,0,12.62-19.58,0-19.58s-12.62,19.58,0,19.58Z"/><path class="cls-5" d="M69.76,347.12h2.45c5.12,0,10-4.5,9.79-9.79a10,10,0,0,0-9.79-9.79H69.76c-5.12,0-10,4.51-9.79,9.79a10,10,0,0,0,9.79,9.79Z"/><path class="cls-5" d="M45.28,281h2.45c5.12,0,10-4.5,9.79-9.79a10,10,0,0,0-9.79-9.79H45.28c-5.12,0-10,4.5-9.79,9.79A10,10,0,0,0,45.28,281Z"/><path class="cls-5" d="M81.58,251.24,84,248.79c3.63-3.63,3.9-10.27,0-13.85a10,10,0,0,0-13.85,0l-2.45,2.45c-3.62,3.63-3.89,10.27,0,13.85a10,10,0,0,0,13.85,0Z"/><path class="cls-5" d="M32.62,324.67l2.45-2.44c3.63-3.63,3.9-10.27,0-13.85a10,10,0,0,0-13.85,0l-2.44,2.45c-3.63,3.62-3.9,10.27,0,13.84a10,10,0,0,0,13.84,0Z"/></g><path class="cls-6" d="M36.3,246.09C24.79,210.22,10.93,173.28,7.21,135.54,5.75,120.69,5.28,62.42,34.36,84c21.4,15.89,33.86,47.93,44.47,71.35a883.41,883.41,0,0,1,33.83,87.43c1.18,3.57,6.86,2,5.66-1.56-8.59-26-18.28-51.68-29.12-76.83S66.67,112.77,49.41,91.15C40.91,80.5,26.67,67.06,12.69,77.44c-15.89,11.79-13,41.22-11.35,58.1C5.11,173.87,19,211.21,30.63,247.65c1.15,3.59,6.82,2.06,5.67-1.56Z"/><path class="cls-6" d="M34.82,251.62c49.36-9,115.5-10.89,156.87,22.28,2.92,2.34,7.11-1.79,4.15-4.16C152.55,235,85,236.56,33.25,246c-3.71.68-2.14,6.34,1.57,5.67Z"/><path class="cls-6" d="M30.51,249.15c-1.11,21.64-2.45,43.28-3.31,64.94-.64,16.4-.65,34.06,7.28,49,15.36,28.84,52.41,33,74.24,55,2.67,2.68,6.83-1.47,4.16-4.16C92.5,393.34,58.3,388.83,42,364.23c-10.66-16.08-9.55-36.62-8.69-55,.95-20,2-40,3.07-60.06.19-3.78-5.68-3.77-5.87,0Z"/><path class="cls-6" d="M197.73,272.58a247.39,247.39,0,0,1,147.76-115c3.63-1,2.09-6.69-1.56-5.67A253.45,253.45,0,0,0,192.66,269.62c-1.89,3.28,3.19,6.25,5.07,3Z"/><path class="cls-6" d="M342.4,156.09c18.64,23.34,50,53.26,50.71,85.26.64,27.86-19.93,51.1-20.6,79-.09,3.78,5.79,3.78,5.88,0,.74-31,25.93-57.13,19.41-88.91-6.19-30.22-32.62-56.19-51.24-79.52-2.36-3-6.49,1.22-4.16,4.15Z"/><path class="cls-6" d="M113.43,420.28c35.55-25.59,77.14-43.82,117.77-59.61,46-17.9,94.74-33.51,144.25-37.37,3.74-.29,3.78-6.17,0-5.87-50.09,3.9-99.23,19.46-145.82,37.58-41.13,16-83.18,34.3-119.17,60.19-3,2.19-.11,7.29,3,5.08Z"/><path class="cls-6" d="M109.77,417.1l8.32,17.49a3,3,0,0,0,4,1.05c37.22-25.35,77.36-45.88,119.2-62.47,19.46-7.72,39.22-14.65,59.18-20.95,22.76-7.2,49.54-18.77,73.62-14.31a3,3,0,0,0,3.72-2.83l1.44-14.9c.36-3.77-5.52-3.74-5.88,0q-.72,7.44-1.43,14.9l3.72-2.83c-21.17-3.93-41.66,3.66-61.75,9.68-23.39,7-46.55,14.8-69.31,23.66-44.05,17.14-86.37,38.34-125.47,65l4,1.05-8.33-17.48c-1.63-3.41-6.69-.44-5.07,3Z"/><path class="cls-6" d="M191.8,269.73a411.32,411.32,0,0,0,28,87.47c1.54,3.45,6.6.46,5.07-3a405,405,0,0,1-27.39-86.07c-.74-3.71-6.4-2.14-5.66,1.56Z"/><path class="cls-6" d="M41.06,366.59a386.8,386.8,0,0,1,155.31-72.22c3.7-.8,2.13-6.47-1.56-5.67A393.19,393.19,0,0,0,36.9,362.44c-3,2.31,1.2,6.44,4.16,4.15Z"/><path class="cls-6" d="M199.55,292.49A570.71,570.71,0,0,1,395,237.55c3.73-.36,3.77-6.24,0-5.88a579.5,579.5,0,0,0-198.37,55.74c-3.4,1.65-.42,6.72,3,5.08Z"/><path class="cls-6" d="M265.79,194.33q-4.43-41.42-8.84-82.82c-2.88-27-6.57-55.24,1-81.78,1.54-5.35,3.25-15.1,7.67-18.43,14.17-10.69,24.72,7.64,29.53,16.41C302,40.2,306.41,54.27,311.38,67.58q15.66,41.91,30.44,84.13c1.24,3.55,6.92,2,5.66-1.56-12.86-36.69-25.65-73.54-40.11-109.64-5-12.51-22.15-50.93-41.67-37.82-9.27,6.23-13,22.65-15.17,32.62-3.16,14.94-3.25,30.38-2.32,45.56,2.33,37.88,7.68,75.73,11.71,113.46.39,3.72,6.27,3.76,5.87,0Z"/><path class="cls-6" d="M263.79,12.91c25.26-13.76,58,129.2,62.39,144.42,1,3.63,6.71,2.09,5.66-1.56-10.32-36-19-73-31.55-108.21C295.58,34.29,280.76-3,260.83,7.83c-3.33,1.81-.36,6.89,3,5.08Z"/><path class="cls-6" d="M273.58,9c-16.41,18.2-12.95,52.92-11.68,75.38,1.84,32.77,8.45,65,15,97.11.76,3.7,6.42,2.13,5.66-1.57-5.72-27.84-11.48-55.79-14-84.15a306.41,306.41,0,0,1-1.11-39.85c.6-14.08.28-31.72,10.24-42.76,2.52-2.8-1.62-7-4.16-4.16Z"/><path class="cls-6" d="M28.46,76.43c-8,4.56-10.09,12.22-11,21-1.77,16.38-.5,33.34,1.77,49.61,4.89,34.93,16.25,68.5,27.59,101.76,1.22,3.56,6.89,2,5.67-1.56-8.65-25.36-17.28-50.82-23.08-77a277.73,277.73,0,0,1-6.29-42.64c-.76-12.14-4.5-38.84,8.34-46.11,3.29-1.86.34-6.94-3-5.07Z"/><path class="cls-6" d="M24.18,91.57c10.67-.28,20.39,27.37,24.3,35.21q9,18,17,36.45a787.75,787.75,0,0,1,28.73,77.15c1.14,3.59,6.81,2.06,5.67-1.56A799.69,799.69,0,0,0,65.11,148q-10-22-21.4-43.26c-4.52-8.46-8.52-19.35-19.53-19.07-3.78.1-3.79,6,0,5.88Z"/><path class="cls-6" d="M36.3,246.09C24.79,210.22,10.93,173.28,7.21,135.54,5.75,120.69,5.28,62.42,34.36,84c21.4,15.89,33.86,47.93,44.47,71.35a883.41,883.41,0,0,1,33.83,87.43c1.18,3.57,6.86,2,5.66-1.56-8.59-26-18.28-51.68-29.12-76.83S66.67,112.77,49.41,91.15C40.91,80.5,26.67,67.06,12.69,77.44c-15.89,11.79-13,41.22-11.35,58.1C5.11,173.87,19,211.21,30.63,247.65c1.15,3.59,6.82,2.06,5.67-1.56Z"/><path class="cls-6" d="M34.82,251.62c49.36-9,115.5-10.89,156.87,22.28,2.92,2.34,7.11-1.79,4.15-4.16C152.55,235,85,236.56,33.25,246c-3.71.68-2.14,6.34,1.57,5.67Z"/><path class="cls-6" d="M30.51,249.15c-1.11,21.64-2.45,43.28-3.31,64.94-.64,16.4-.65,34.06,7.28,49,15.36,28.84,52.41,33,74.24,55,2.67,2.68,6.83-1.47,4.16-4.16C92.5,393.34,58.3,388.83,42,364.23c-10.66-16.08-9.55-36.62-8.69-55,.95-20,2-40,3.07-60.06.19-3.78-5.68-3.77-5.87,0Z"/><path class="cls-6" d="M197.73,272.58a247.39,247.39,0,0,1,147.76-115c3.63-1,2.09-6.69-1.56-5.67A253.45,253.45,0,0,0,192.66,269.62c-1.89,3.28,3.19,6.25,5.07,3Z"/><path class="cls-6" d="M342.4,156.09c18.64,23.34,50,53.26,50.71,85.26.64,27.86-19.93,51.1-20.6,79-.09,3.78,5.79,3.78,5.88,0,.74-31,25.93-57.13,19.41-88.91-6.19-30.22-32.62-56.19-51.24-79.52-2.36-3-6.49,1.22-4.16,4.15Z"/><path class="cls-6" d="M113.43,420.28c35.55-25.59,77.14-43.82,117.77-59.61,46-17.9,94.74-33.51,144.25-37.37,3.74-.29,3.78-6.17,0-5.87-50.09,3.9-99.23,19.46-145.82,37.58-41.13,16-83.18,34.3-119.17,60.19-3,2.19-.11,7.29,3,5.08Z"/><path class="cls-6" d="M109.77,417.1l8.32,17.49a3,3,0,0,0,4,1.05c37.22-25.35,77.36-45.88,119.2-62.47,19.46-7.72,39.22-14.65,59.18-20.95,22.76-7.2,49.54-18.77,73.62-14.31a3,3,0,0,0,3.72-2.83l1.44-14.9c.36-3.77-5.52-3.74-5.88,0q-.72,7.44-1.43,14.9l3.72-2.83c-21.17-3.93-41.66,3.66-61.75,9.68-23.39,7-46.55,14.8-69.31,23.66-44.05,17.14-86.37,38.34-125.47,65l4,1.05-8.33-17.48c-1.63-3.41-6.69-.44-5.07,3Z"/><path class="cls-6" d="M191.8,269.73a411.32,411.32,0,0,0,28,87.47c1.54,3.45,6.6.46,5.07-3a405,405,0,0,1-27.39-86.07c-.74-3.71-6.4-2.14-5.66,1.56Z"/><path class="cls-6" d="M41.06,366.59a386.8,386.8,0,0,1,155.31-72.22c3.7-.8,2.13-6.47-1.56-5.67A393.19,393.19,0,0,0,36.9,362.44c-3,2.31,1.2,6.44,4.16,4.15Z"/><path class="cls-6" d="M199.55,292.49A570.71,570.71,0,0,1,395,237.55c3.73-.36,3.77-6.24,0-5.88a579.5,579.5,0,0,0-198.37,55.74c-3.4,1.65-.42,6.72,3,5.08Z"/><path class="cls-6" d="M265.79,194.33q-4.43-41.42-8.84-82.82c-2.88-27-6.57-55.24,1-81.78,1.54-5.35,3.25-15.1,7.67-18.43,14.17-10.69,24.72,7.64,29.53,16.41C302,40.2,306.41,54.27,311.38,67.58q15.66,41.91,30.44,84.13c1.24,3.55,6.92,2,5.66-1.56-12.86-36.69-25.65-73.54-40.11-109.64-5-12.51-22.15-50.93-41.67-37.82-9.27,6.23-13,22.65-15.17,32.62-3.16,14.94-3.25,30.38-2.32,45.56,2.33,37.88,7.68,75.73,11.71,113.46.39,3.72,6.27,3.76,5.87,0Z"/><path class="cls-6" d="M263.79,12.91c25.26-13.76,58,129.2,62.39,144.42,1,3.63,6.71,2.09,5.66-1.56-10.32-36-19-73-31.55-108.21C295.58,34.29,280.76-3,260.83,7.83c-3.33,1.81-.36,6.89,3,5.08Z"/><path class="cls-6" d="M273.58,9c-16.41,18.2-12.95,52.92-11.68,75.38,1.84,32.77,8.45,65,15,97.11.76,3.7,6.42,2.13,5.66-1.57-5.72-27.84-11.48-55.79-14-84.15a306.41,306.41,0,0,1-1.11-39.85c.6-14.08.28-31.72,10.24-42.76,2.52-2.8-1.62-7-4.16-4.16Z"/><path class="cls-6" d="M28.46,76.43c-8,4.56-10.09,12.22-11,21-1.77,16.38-.5,33.34,1.77,49.61,4.89,34.93,16.25,68.5,27.59,101.76,1.22,3.56,6.89,2,5.67-1.56-8.65-25.36-17.28-50.82-23.08-77a277.73,277.73,0,0,1-6.29-42.64c-.76-12.14-4.5-38.84,8.34-46.11,3.29-1.86.34-6.94-3-5.07Z"/><path class="cls-6" d="M24.18,91.57c10.67-.28,20.39,27.37,24.3,35.21q9,18,17,36.45a787.75,787.75,0,0,1,28.73,77.15c1.14,3.59,6.81,2.06,5.67-1.56A799.69,799.69,0,0,0,65.11,148q-10-22-21.4-43.26c-4.52-8.46-8.52-19.35-19.53-19.07-3.78.1-3.79,6,0,5.88Z"/></g></g></svg>