<svg xmlns="http://www.w3.org/2000/svg" viewBox="0 0 371.85 263.84"><defs><style>.cls-1{fill:#fae3ae;}.cls-2{fill:#f6a1a6;}.cls-3{fill:#fff7ee;}.cls-4{fill:#3c2415;}</style></defs><g id="Layer_2" data-name="Layer 2"><g id="Layer_1-2" data-name="Layer 1"><path class="cls-1" d="M19.49,143.21c104-32.42,208.4-65.77,303.35-120.09C316.2,19,310,14.6,305.8,7.06c-43.8,25-89.21,48.66-136.34,66.6C119.61,92.64,69,109.75,18.58,127.22A61.63,61.63,0,0,1,19.49,143.21Z"/><path class="cls-1" d="M283.72,174.83c-4.4,10.61-9.05,21.29-11.75,32.49a84.43,84.43,0,0,0-2.05,19.88c23.77-54.41,65.78-98.38,92.24-151.43C323.89,98.84,300.9,133.45,283.72,174.83Z"/><path class="cls-2" d="M18.77,149.59c-1.21,8-3.46,16-5.62,24.33-2.39,9.18-8.47,26.39-4.64,35.45,2.63,6.2,13.12,2.41,19.52,1.65,7.34-.87,14.69-1.68,22.06-2.35,45.14-4.1,92.1-2.81,133.47,17.71a142.62,142.62,0,0,1,25.95,16.43c4.05,3.25,7.62,8.08,11.92,10.86,6,3.92,10.45.52,16.76-2.3.39-.17.82-.33,1.23-.5L181,95.2C127.69,115.43,73.16,132.63,18.77,149.59Z"/><path class="cls-2" d="M186.48,93.23Q215.7,171,244.9,248.83c5.16-1.82,10.72-3.77,14.14-6.74,6.78-5.92,4.56-12.26,4.84-20,.4-10.88,3.49-21.37,7.24-31.52,15.07-40.71,34.06-79.64,68.91-106.94a172.92,172.92,0,0,1,15.24-10.69c6.3-3.93,10.44-5.36,7.35-13.61-3.2-8.53-15.3-18.11-22-24.12a77.76,77.76,0,0,0-12.08-8.6c-.06,0-.08.09-.14.12-45.5,26.27-93.22,47.65-142,66.4C186.43,93.16,186.47,93.18,186.48,93.23Z"/><path class="cls-1" d="M19.84,217.92c62.77,22.62,130.44,21.16,194.73,37.42C163.18,205.84,87,209.84,19.84,217.92Z"/><path class="cls-3" d="M367.65,73.69c.41-.4.82-.81,1.22-1.22,3.63-3.63,3.9-10.27,0-13.85a10,10,0,0,0-13.84,0l-1.23,1.23c-3.62,3.62-3.9,10.27,0,13.84a10,10,0,0,0,13.85,0Z"/><path class="cls-3" d="M335.83,52.89l1.22-1.23c3.63-3.62,3.9-10.27,0-13.84a10,10,0,0,0-13.85,0L322,39c-3.63,3.63-3.9,10.27,0,13.85a10,10,0,0,0,13.85,0Z"/><path class="cls-3" d="M324.81,101.84l1.23-1.22c3.62-3.63,3.89-10.27,0-13.85a10,10,0,0,0-13.85,0L311,88c-3.62,3.62-3.89,10.27,0,13.84a10,10,0,0,0,13.85,0Z"/><path class="cls-3" d="M280,85.13h1.22c5.12,0,10-4.51,9.79-9.79a10,10,0,0,0-9.79-9.79H280c-5.13,0-10,4.5-9.8,9.79a10,10,0,0,0,9.8,9.79Z"/><path class="cls-3" d="M268.93,130.41h1.22c5.13,0,10-4.5,9.8-9.79a10,10,0,0,0-9.8-9.79h-1.22c-5.12,0-10,4.5-9.79,9.79a10,10,0,0,0,9.79,9.79Z"/><path class="cls-3" d="M253,184.27c12.6,0,12.62-19.59,0-19.59s-12.62,19.59,0,19.59Z"/><path class="cls-3" d="M207.47,144.05l-.26,0,9.53,2.52-.16-.19,2.52,4.32c0-.1,0-.2,0-.3v5.2l0-.3q-1.26,2.16-2.51,4.32l.16-.18L207.22,162l.26,0c5,.86,10.79-1.34,12.05-6.84,1.08-4.75-1.44-11.11-6.84-12-3.68-.64-6.92-.16-9.79,2.47a10.37,10.37,0,0,0-3.09,7.41,11.19,11.19,0,0,0,3,7.32c2.65,2.88,6.28,3.12,9.87,2.57,5.08-.76,8.33-7.42,6.84-12-1.8-5.54-6.6-7.66-12.05-6.84Z"/><path class="cls-3" d="M218.75,113.28H220c5.13,0,10-4.5,9.8-9.79A10,10,0,0,0,220,93.7h-1.22c-5.12,0-10,4.5-9.79,9.79a10,10,0,0,0,9.79,9.79Z"/><path class="cls-3" d="M238.33,246.69c12.6,0,12.62-19.59,0-19.59s-12.62,19.59,0,19.59Z"/><path class="cls-3" d="M191.82,216.09c12.6,0,12.63-19.58,0-19.58s-12.62,19.58,0,19.58Z"/><path class="cls-3" d="M152.66,173.25V172c0-5.12-4.51-10-9.79-9.79a10,10,0,0,0-9.8,9.79v1.22c0,5.12,4.51,10,9.8,9.79a10,10,0,0,0,9.79-9.79Z"/><path class="cls-3" d="M157.55,136.53c12.6,0,12.63-19.58,0-19.58s-12.62,19.58,0,19.58Z"/><path class="cls-3" d="M95.13,154.89c12.6,0,12.62-19.58,0-19.58s-12.62,19.58,0,19.58Z"/><path class="cls-3" d="M80,194.86c.4-.41.81-.81,1.22-1.22,3.63-3.63,3.9-10.27,0-13.85a10,10,0,0,0-13.85,0L66.18,181c-3.63,3.63-3.9,10.27,0,13.85a10,10,0,0,0,13.85,0Z"/><path class="cls-3" d="M43.73,161v-1.22c0-5.12-4.51-10-9.79-9.79a10,10,0,0,0-9.79,9.79V161c0,5.12,4.5,10,9.79,9.79A10,10,0,0,0,43.73,161Z"/><path class="cls-3" d="M9.46,216.09c12.6,0,12.62-19.58,0-19.58s-12.62,19.58,0,19.58Z"/><path class="cls-4" d="M304.46,4.48C312.08,21,328,23.81,340.66,35.19c6.66,6,18.76,15.59,22,24.12,3.09,8.25-1.05,9.68-7.35,13.61A172.92,172.92,0,0,0,340,83.61c-34.85,27.3-53.84,66.23-68.91,106.94-3.75,10.15-6.84,20.64-7.24,31.52-.28,7.76,1.94,14.1-4.84,20-5,4.36-14.64,6.52-20.85,9.28s-10.71,6.22-16.76,2.3c-4.3-2.78-7.87-7.61-11.92-10.86a142.62,142.62,0,0,0-25.95-16.43c-41.37-20.52-88.33-21.81-133.47-17.71-7.37.67-14.72,1.48-22.06,2.35-6.4.76-16.89,4.55-19.52-1.65-3.83-9.06,2.25-26.27,4.64-35.45,4.36-16.76,9.07-32.1,4.94-49.43-.69,1.2-1.37,2.41-2.05,3.61C67.27,110.32,118.77,93,169.46,73.66c48.09-18.31,94.4-42.56,139-68.12,3.28-1.88.33-7-3-5.07-45.28,25.93-92.35,50.71-141.3,68.91-49.63,18.45-99.73,35.7-149.75,53.06a3,3,0,0,0-2.05,3.61c3.72,15.58-.47,29.54-4.48,44.57C3.86,186,1.89,200.81,3.09,216.71c.1,1.42,1.26,3.15,2.93,2.93,73.51-9.39,161.29-18,216,43.32a3,3,0,0,0,3.56.45c11.88-5.29,25.2-9.77,36.47-16.25,3.76-2.16,6.53-3.86,7.87-8.32.9-3,.05-5.94,0-8.9,0-7.83.21-14.85,2.07-22.62,2.7-11.2,7.35-21.88,11.75-32.49C302.09,130.57,327.11,94,370.38,71.11a2.87,2.87,0,0,0,1.46-2.54c-1.64-14.49-14.22-25.19-24.11-34.72C335.42,22,317,17.77,309.54,1.52,308-1.91,302.89,1.07,304.46,4.48Z"/><path class="cls-4" d="M270.35,241.69c23.24-63.06,73.37-110.87,101.09-171.63,1.55-3.42-3.51-6.41-5.08-3-27.93,61.25-78.24,109.44-101.68,173-1.31,3.55,4.37,5.08,5.67,1.56Z"/><path class="cls-4" d="M7.49,219.49c69.08,28.38,144.77,23.91,215.77,44.22,3.64,1,5.2-4.63,1.56-5.66-71-20.31-146.71-15.86-215.77-44.23-3.49-1.43-5,4.25-1.56,5.67Z"/><path class="cls-4" d="M16.25,150.38C123.22,117,230.91,83,328.44,26.71c3.27-1.89.31-7-3-5.07C228.37,77.7,121.18,111.52,14.69,144.71c-3.6,1.12-2.06,6.8,1.56,5.67Z"/><path class="cls-4" d="M180.82,94.79q30,79.92,60,159.86c1.32,3.5,7,2,5.67-1.56q-30-79.93-60-159.86c-1.31-3.51-7-2-5.66,1.56Z"/><path class="cls-4" d="M304.46,4.48C312.08,21,328,23.81,340.66,35.19c6.66,6,18.76,15.59,22,24.12,3.09,8.25-1.05,9.68-7.35,13.61A172.92,172.92,0,0,0,340,83.61c-34.85,27.3-53.84,66.23-68.91,106.94-3.75,10.15-6.84,20.64-7.24,31.52-.28,7.76,1.94,14.1-4.84,20-5,4.36-14.64,6.52-20.85,9.28s-10.71,6.22-16.76,2.3c-4.3-2.78-7.87-7.61-11.92-10.86a142.62,142.62,0,0,0-25.95-16.43c-41.37-20.52-88.33-21.81-133.47-17.71-7.37.67-14.72,1.48-22.06,2.35-6.4.76-16.89,4.55-19.52-1.65-3.83-9.06,2.25-26.27,4.64-35.45,4.36-16.76,9.07-32.1,4.94-49.43-.69,1.2-1.37,2.41-2.05,3.61C67.27,110.32,118.77,93,169.46,73.66c48.09-18.31,94.4-42.56,139-68.12,3.28-1.88.33-7-3-5.07-45.28,25.93-92.35,50.71-141.3,68.91-49.63,18.45-99.73,35.7-149.75,53.06a3,3,0,0,0-2.05,3.61c3.72,15.58-.47,29.54-4.48,44.57C3.86,186,1.89,200.81,3.09,216.71c.1,1.42,1.26,3.15,2.93,2.93,73.51-9.39,161.29-18,216,43.32a3,3,0,0,0,3.56.45c11.88-5.29,25.2-9.77,36.47-16.25,3.76-2.16,6.53-3.86,7.87-8.32.9-3,.05-5.94,0-8.9,0-7.83.21-14.85,2.07-22.62,2.7-11.2,7.35-21.88,11.75-32.49C302.09,130.57,327.11,94,370.38,71.11a2.87,2.87,0,0,0,1.46-2.54c-1.64-14.49-14.22-25.19-24.11-34.72C335.42,22,317,17.77,309.54,1.52,308-1.91,302.89,1.07,304.46,4.48Z"/><path class="cls-4" d="M270.35,241.69c23.24-63.06,73.37-110.87,101.09-171.63,1.55-3.42-3.51-6.41-5.08-3-27.93,61.25-78.24,109.44-101.68,173-1.31,3.55,4.37,5.08,5.67,1.56Z"/><path class="cls-4" d="M7.49,219.49c69.08,28.38,144.77,23.91,215.77,44.22,3.64,1,5.2-4.63,1.56-5.66-71-20.31-146.71-15.86-215.77-44.23-3.49-1.43-5,4.25-1.56,5.67Z"/><path class="cls-4" d="M16.25,150.38C123.22,117,230.91,83,328.44,26.71c3.27-1.89.31-7-3-5.07C228.37,77.7,121.18,111.52,14.69,144.71c-3.6,1.12-2.06,6.8,1.56,5.67Z"/><path class="cls-4" d="M180.82,94.79q30,79.92,60,159.86c1.32,3.5,7,2,5.67-1.56q-30-79.93-60-159.86c-1.31-3.51-7-2-5.66,1.56Z"/></g></g></svg>