<svg xmlns="http://www.w3.org/2000/svg" viewBox="0 0 396.89 273.57"><defs><style>.cls-1{fill:#ef4a5f;}.cls-2,.cls-5{fill:#ec7079;}.cls-3{fill:#fff7ee;}.cls-4{fill:#3c2415;}.cls-5{font-size:38.99px;font-family:Bauhaus93, "Bauhaus 93";letter-spacing:0.2em;}</style></defs><g id="Layer_2" data-name="Layer 2"><g id="Layer_1-2" data-name="Layer 1"><path class="cls-1" d="M300,172.62a170.54,170.54,0,0,0-2.57,38.68,76.46,76.46,0,0,0,.91,8.37c6-57.72,31.95-106.77,73.4-147.45C334.14,92.53,307.74,129.93,300,172.62Z"/><path class="cls-2" d="M20.69,205.1l4.12,9.46c43.86-20.42,92.66-24.25,139.09-9.69,27.66,8.68,54.39,22.65,74.39,44,4.58,4.89,8.12,11.94,13,16.33,4.6,4.09,7.72,2.09,14.69-.06a137,137,0,0,0,18.77-7.4c8.9-4.25,10.59-9.49,10.22-18.61-.44-10.92-3.42-21.69-3.63-32.79a173.94,173.94,0,0,1,2.1-30.41,155.31,155.31,0,0,1,21.73-58.76,147.5,147.5,0,0,1,38.3-40.82A135.1,135.1,0,0,1,380.12,61.4c2.38-1,4.13-1.44,5.51-2,.59-.51,1.15-1.05,1.75-1.56a2.91,2.91,0,0,1,.74-.42,9.07,9.07,0,0,0,1.2-2.55c.79-2.47.13-5.76-.52-8.79-61,21.6-121.25,45.35-180.89,70.42C144.37,143.17,80.73,171.07,20.69,205.1Z"/><path class="cls-3" d="M202.19,112.52c60.91-25.7,122.49-50,184.81-72.09-5-10.87-11.15-22.28-14.35-33.77-18.36,5.55-36.23,13.36-54,20.5C256,52.38,193.8,78.94,132,106.28c-27.68,12.24-55.3,24.64-82.6,37.7-14.06,6.73-30.21,13-42.86,22.46q5.51,16.83,11,33.67C76.77,166.52,139.52,139,202.19,112.52Z"/><path class="cls-1" d="M75.65,205c57.07-2.25,114.71,22.24,162.85,53-.15-.18-.28-.4-.43-.58C199,211.53,134.3,195.27,75.65,205Z"/><path class="cls-4" d="M.27,166.14Q6.65,185.67,13,205.2A3,3,0,0,0,17.33,207c61-34.9,125.85-63.3,190.57-90.51C268.5,91,329.75,66.83,391.76,45a3,3,0,0,0,1.75-4.31c-5.44-12.35-13-25.33-16-38.49a3,3,0,0,0-3.61-2c-46.75,13.49-92.13,35.64-136.84,54.5C175.2,80.7,113.41,107.2,52.72,135.93,35.58,144,16.08,151.5,1,163.28c-3,2.33,1.21,6.46,4.16,4.16C18,157.4,34.84,151,49.4,144c27.3-13.06,54.92-25.45,82.6-37.69C193.8,79,256,52.39,318.68,27.17c18.65-7.5,37.43-15.82,56.78-21.4l-3.62-2c3.15,13.59,11,27.15,16.6,39.88l1.76-4.31c-63.42,22.37-126.06,47.11-188,73.24C138.4,139.44,74.52,167.48,14.36,201.88l4.32,1.76L5.93,164.58C4.76,161-.91,162.53.27,166.14Z"/><path class="cls-4" d="M14.92,206.49l5.85,13.45c.67,1.53,2.74,1.67,4,1.05,67.84-32.91,162.36-23.4,213.28,36.45,3.38,4,6.11,9.84,10,13.26,6.81,6,16.71,1.19,24.47-1.54,10.58-3.71,30.37-8.68,29.92-22.69-.37-11.64-4.5-23.34-5.06-35.17A170.54,170.54,0,0,1,300,172.62c9.28-51,45-94.48,94.75-110.25a3,3,0,0,0,2.16-2.84c-.76-5.86-2.21-11.55-3-17.41-.47-3.7-6.35-3.75-5.87,0s2.41,9.1,1.26,12.7c-1.58,5-3.87,4.34-9.2,6.58a135.1,135.1,0,0,0-26.61,14.95,147.5,147.5,0,0,0-38.3,40.82,155.48,155.48,0,0,0-21.73,58.76,174.92,174.92,0,0,0-2.1,30.41c.21,11.1,3.19,21.87,3.63,32.79.37,9.12-1.32,14.36-10.21,18.61a137.66,137.66,0,0,1-18.78,7.4c-7,2.15-10.09,4.15-14.68.06-4.93-4.39-8.47-11.44-13-16.33-20-21.35-46.73-35.32-74.39-44-47.47-14.89-97.44-10.6-142,11l4,1.05q-2.94-6.72-5.86-13.44c-1.51-3.46-6.57-.47-5.07,3Z"/><path class="cls-4" d="M24.09,221.29c77.57-29.24,162.07,7.27,226.14,51.56,3.12,2.15,6.06-2.94,3-5.08-65.25-45.09-151.71-81.9-230.66-52.15-3.51,1.32-2,7,1.56,5.67Z"/><path class="cls-4" d="M387.36,57.79c-56.73,48.58-89.87,110.36-90.45,185.88,0,3.78,5.85,3.78,5.88,0,.56-74,33.17-134.16,88.73-181.73,2.87-2.46-1.3-6.6-4.16-4.15Z"/><path class="cls-4" d="M.27,166.14Q6.65,185.67,13,205.2A3,3,0,0,0,17.33,207c61-34.9,125.85-63.3,190.57-90.51C268.5,91,329.75,66.83,391.76,45a3,3,0,0,0,1.75-4.31c-5.44-12.35-13-25.33-16-38.49a3,3,0,0,0-3.61-2c-46.75,13.49-92.13,35.64-136.84,54.5C175.2,80.7,113.41,107.2,52.72,135.93,35.58,144,16.08,151.5,1,163.28c-3,2.33,1.21,6.46,4.16,4.16C18,157.4,34.84,151,49.4,144c27.3-13.06,54.92-25.45,82.6-37.69C193.8,79,256,52.39,318.68,27.17c18.65-7.5,37.43-15.82,56.78-21.4l-3.62-2c3.15,13.59,11,27.15,16.6,39.88l1.76-4.31c-63.42,22.37-126.06,47.11-188,73.24C138.4,139.44,74.52,167.48,14.36,201.88l4.32,1.76L5.93,164.58C4.76,161-.91,162.53.27,166.14Z"/><path class="cls-4" d="M14.92,206.49l5.85,13.45c.67,1.53,2.74,1.67,4,1.05,67.84-32.91,162.36-23.4,213.28,36.45,3.38,4,6.11,9.84,10,13.26,6.81,6,16.71,1.19,24.47-1.54,10.58-3.71,30.37-8.68,29.92-22.69-.37-11.64-4.5-23.34-5.06-35.17A170.54,170.54,0,0,1,300,172.62c9.28-51,45-94.48,94.75-110.25a3,3,0,0,0,2.16-2.84c-.76-5.86-2.21-11.55-3-17.41-.47-3.7-6.35-3.75-5.87,0s2.41,9.1,1.26,12.7c-1.58,5-3.87,4.34-9.2,6.58a135.1,135.1,0,0,0-26.61,14.95,147.5,147.5,0,0,0-38.3,40.82,155.48,155.48,0,0,0-21.73,58.76,174.92,174.92,0,0,0-2.1,30.41c.21,11.1,3.19,21.87,3.63,32.79.37,9.12-1.32,14.36-10.21,18.61a137.66,137.66,0,0,1-18.78,7.4c-7,2.15-10.09,4.15-14.68.06-4.93-4.39-8.47-11.44-13-16.33-20-21.35-46.73-35.32-74.39-44-47.47-14.89-97.44-10.6-142,11l4,1.05q-2.94-6.72-5.86-13.44c-1.51-3.46-6.57-.47-5.07,3Z"/><path class="cls-4" d="M24.09,221.29c77.57-29.24,162.07,7.27,226.14,51.56,3.12,2.15,6.06-2.94,3-5.08-65.25-45.09-151.71-81.9-230.66-52.15-3.51,1.32-2,7,1.56,5.67Z"/><path class="cls-4" d="M387.36,57.79c-56.73,48.58-89.87,110.36-90.45,185.88,0,3.78,5.85,3.78,5.88,0,.56-74,33.17-134.16,88.73-181.73,2.87-2.46-1.3-6.6-4.16-4.15Z"/><text class="cls-5" transform="matrix(1, -0.43, 0.4, 0.92, 69.04, 165.64)"><tspan xml:space="preserve">SOL   SLUTS</tspan></text></g></g></svg>